ISO-10303-21;
HEADER;
/* Generated by software containing ST-Developer
 * from STEP Tools, Inc. (www.steptools.com) 
 */

FILE_DESCRIPTION(
/* description */ (''),
/* implementation_level */ '2;1');

FILE_NAME(
/* name */ 'camera_case_t.stp',
/* time_stamp */ '2026-07-01T10:47:47-04:00',
/* author */ ('Student'),
/* organization */ (''),
/* preprocessor_version */ 'ST-DEVELOPER v20.1',
/* originating_system */ 'Autodesk Inventor 2027',
/* authorisation */ '');

FILE_SCHEMA (('AUTOMOTIVE_DESIGN { 1 0 10303 214 3 1 1 }'));
ENDSEC;

DATA;
#10=MECHANICAL_DESIGN_GEOMETRIC_PRESENTATION_REPRESENTATION('',(#13),#1213);
#11=SHAPE_REPRESENTATION_RELATIONSHIP('SRR','None',#1220,#12);
#12=ADVANCED_BREP_SHAPE_REPRESENTATION('',(#14),#1212);
#13=STYLED_ITEM('',(#1229),#14);
#14=MANIFOLD_SOLID_BREP('Solid1',#696);
#15=FACE_BOUND('',#95,.T.);
#16=FACE_BOUND('',#99,.T.);
#17=FACE_BOUND('',#103,.T.);
#18=FACE_BOUND('',#107,.T.);
#19=FACE_BOUND('',#109,.T.);
#20=FACE_BOUND('',#110,.T.);
#21=FACE_BOUND('',#111,.T.);
#22=FACE_BOUND('',#112,.T.);
#23=FACE_BOUND('',#113,.T.);
#24=FACE_BOUND('',#114,.T.);
#25=FACE_BOUND('',#115,.T.);
#26=FACE_BOUND('',#144,.T.);
#27=FACE_BOUND('',#145,.T.);
#28=FACE_BOUND('',#146,.T.);
#29=PLANE('',#725);
#30=PLANE('',#732);
#31=PLANE('',#739);
#32=PLANE('',#746);
#33=PLANE('',#747);
#34=PLANE('',#759);
#35=PLANE('',#760);
#36=PLANE('',#761);
#37=PLANE('',#762);
#38=PLANE('',#763);
#39=PLANE('',#764);
#40=PLANE('',#765);
#41=PLANE('',#766);
#42=PLANE('',#773);
#43=PLANE('',#776);
#44=PLANE('',#779);
#45=PLANE('',#782);
#46=PLANE('',#785);
#47=PLANE('',#788);
#48=PLANE('',#791);
#49=PLANE('',#794);
#50=PLANE('',#797);
#51=FACE_OUTER_BOUND('',#92,.T.);
#52=FACE_OUTER_BOUND('',#93,.T.);
#53=FACE_OUTER_BOUND('',#94,.T.);
#54=FACE_OUTER_BOUND('',#96,.T.);
#55=FACE_OUTER_BOUND('',#97,.T.);
#56=FACE_OUTER_BOUND('',#98,.T.);
#57=FACE_OUTER_BOUND('',#100,.T.);
#58=FACE_OUTER_BOUND('',#101,.T.);
#59=FACE_OUTER_BOUND('',#102,.T.);
#60=FACE_OUTER_BOUND('',#104,.T.);
#61=FACE_OUTER_BOUND('',#105,.T.);
#62=FACE_OUTER_BOUND('',#106,.T.);
#63=FACE_OUTER_BOUND('',#108,.T.);
#64=FACE_OUTER_BOUND('',#116,.T.);
#65=FACE_OUTER_BOUND('',#117,.T.);
#66=FACE_OUTER_BOUND('',#118,.T.);
#67=FACE_OUTER_BOUND('',#119,.T.);
#68=FACE_OUTER_BOUND('',#120,.T.);
#69=FACE_OUTER_BOUND('',#121,.T.);
#70=FACE_OUTER_BOUND('',#122,.T.);
#71=FACE_OUTER_BOUND('',#123,.T.);
#72=FACE_OUTER_BOUND('',#124,.T.);
#73=FACE_OUTER_BOUND('',#125,.T.);
#74=FACE_OUTER_BOUND('',#126,.T.);
#75=FACE_OUTER_BOUND('',#127,.T.);
#76=FACE_OUTER_BOUND('',#128,.T.);
#77=FACE_OUTER_BOUND('',#129,.T.);
#78=FACE_OUTER_BOUND('',#130,.T.);
#79=FACE_OUTER_BOUND('',#131,.T.);
#80=FACE_OUTER_BOUND('',#132,.T.);
#81=FACE_OUTER_BOUND('',#133,.T.);
#82=FACE_OUTER_BOUND('',#134,.T.);
#83=FACE_OUTER_BOUND('',#135,.T.);
#84=FACE_OUTER_BOUND('',#136,.T.);
#85=FACE_OUTER_BOUND('',#137,.T.);
#86=FACE_OUTER_BOUND('',#138,.T.);
#87=FACE_OUTER_BOUND('',#139,.T.);
#88=FACE_OUTER_BOUND('',#140,.T.);
#89=FACE_OUTER_BOUND('',#141,.T.);
#90=FACE_OUTER_BOUND('',#142,.T.);
#91=FACE_OUTER_BOUND('',#143,.T.);
#92=EDGE_LOOP('',(#450,#451,#452,#453));
#93=EDGE_LOOP('',(#454,#455,#456,#457));
#94=EDGE_LOOP('',(#458));
#95=EDGE_LOOP('',(#459));
#96=EDGE_LOOP('',(#460,#461,#462,#463));
#97=EDGE_LOOP('',(#464,#465,#466,#467));
#98=EDGE_LOOP('',(#468));
#99=EDGE_LOOP('',(#469));
#100=EDGE_LOOP('',(#470,#471,#472,#473));
#101=EDGE_LOOP('',(#474,#475,#476,#477));
#102=EDGE_LOOP('',(#478));
#103=EDGE_LOOP('',(#479));
#104=EDGE_LOOP('',(#480,#481,#482,#483));
#105=EDGE_LOOP('',(#484,#485,#486,#487));
#106=EDGE_LOOP('',(#488));
#107=EDGE_LOOP('',(#489));
#108=EDGE_LOOP('',(#490,#491,#492,#493,#494,#495,#496,#497,#498,#499,#500,
#501,#502,#503,#504,#505,#506,#507,#508,#509));
#109=EDGE_LOOP('',(#510));
#110=EDGE_LOOP('',(#511));
#111=EDGE_LOOP('',(#512));
#112=EDGE_LOOP('',(#513));
#113=EDGE_LOOP('',(#514));
#114=EDGE_LOOP('',(#515));
#115=EDGE_LOOP('',(#516));
#116=EDGE_LOOP('',(#517));
#117=EDGE_LOOP('',(#518));
#118=EDGE_LOOP('',(#519));
#119=EDGE_LOOP('',(#520,#521,#522,#523));
#120=EDGE_LOOP('',(#524,#525,#526,#527));
#121=EDGE_LOOP('',(#528,#529,#530,#531));
#122=EDGE_LOOP('',(#532,#533,#534,#535));
#123=EDGE_LOOP('',(#536));
#124=EDGE_LOOP('',(#537,#538,#539,#540));
#125=EDGE_LOOP('',(#541,#542,#543,#544));
#126=EDGE_LOOP('',(#545,#546,#547,#548));
#127=EDGE_LOOP('',(#549,#550,#551,#552,#553,#554,#555,#556));
#128=EDGE_LOOP('',(#557,#558,#559,#560));
#129=EDGE_LOOP('',(#561,#562,#563,#564));
#130=EDGE_LOOP('',(#565,#566,#567,#568));
#131=EDGE_LOOP('',(#569,#570,#571,#572));
#132=EDGE_LOOP('',(#573,#574,#575,#576));
#133=EDGE_LOOP('',(#577,#578,#579,#580));
#134=EDGE_LOOP('',(#581,#582,#583,#584));
#135=EDGE_LOOP('',(#585,#586,#587,#588));
#136=EDGE_LOOP('',(#589,#590,#591,#592));
#137=EDGE_LOOP('',(#593,#594,#595,#596));
#138=EDGE_LOOP('',(#597,#598,#599,#600));
#139=EDGE_LOOP('',(#601,#602,#603,#604));
#140=EDGE_LOOP('',(#605,#606,#607,#608));
#141=EDGE_LOOP('',(#609,#610,#611,#612));
#142=EDGE_LOOP('',(#613,#614,#615,#616));
#143=EDGE_LOOP('',(#617,#618,#619,#620,#621,#622,#623,#624,#625,#626,#627,
#628,#629,#630,#631,#632));
#144=EDGE_LOOP('',(#633));
#145=EDGE_LOOP('',(#634));
#146=EDGE_LOOP('',(#635));
#147=LINE('',#1018,#202);
#148=LINE('',#1024,#203);
#149=LINE('',#1031,#204);
#150=LINE('',#1037,#205);
#151=LINE('',#1044,#206);
#152=LINE('',#1050,#207);
#153=LINE('',#1057,#208);
#154=LINE('',#1063,#209);
#155=LINE('',#1069,#210);
#156=LINE('',#1071,#211);
#157=LINE('',#1073,#212);
#158=LINE('',#1075,#213);
#159=LINE('',#1079,#214);
#160=LINE('',#1083,#215);
#161=LINE('',#1087,#216);
#162=LINE('',#1091,#217);
#163=LINE('',#1095,#218);
#164=LINE('',#1099,#219);
#165=LINE('',#1103,#220);
#166=LINE('',#1106,#221);
#167=LINE('',#1118,#222);
#168=LINE('',#1120,#223);
#169=LINE('',#1121,#224);
#170=LINE('',#1124,#225);
#171=LINE('',#1125,#226);
#172=LINE('',#1128,#227);
#173=LINE('',#1129,#228);
#174=LINE('',#1131,#229);
#175=LINE('',#1136,#230);
#176=LINE('',#1140,#231);
#177=LINE('',#1144,#232);
#178=LINE('',#1147,#233);
#179=LINE('',#1149,#234);
#180=LINE('',#1150,#235);
#181=LINE('',#1154,#236);
#182=LINE('',#1157,#237);
#183=LINE('',#1158,#238);
#184=LINE('',#1162,#239);
#185=LINE('',#1165,#240);
#186=LINE('',#1166,#241);
#187=LINE('',#1170,#242);
#188=LINE('',#1173,#243);
#189=LINE('',#1174,#244);
#190=LINE('',#1178,#245);
#191=LINE('',#1181,#246);
#192=LINE('',#1182,#247);
#193=LINE('',#1186,#248);
#194=LINE('',#1189,#249);
#195=LINE('',#1190,#250);
#196=LINE('',#1194,#251);
#197=LINE('',#1197,#252);
#198=LINE('',#1198,#253);
#199=LINE('',#1202,#254);
#200=LINE('',#1205,#255);
#201=LINE('',#1206,#256);
#202=VECTOR('',#804,1.1);
#203=VECTOR('',#811,2.375);
#204=VECTOR('',#820,1.1);
#205=VECTOR('',#827,2.375);
#206=VECTOR('',#836,1.1);
#207=VECTOR('',#843,2.375);
#208=VECTOR('',#852,1.1);
#209=VECTOR('',#859,2.375);
#210=VECTOR('',#866,10.);
#211=VECTOR('',#867,10.);
#212=VECTOR('',#868,10.);
#213=VECTOR('',#869,10.);
#214=VECTOR('',#872,10.);
#215=VECTOR('',#875,10.);
#216=VECTOR('',#878,10.);
#217=VECTOR('',#881,10.);
#218=VECTOR('',#884,10.);
#219=VECTOR('',#887,10.);
#220=VECTOR('',#890,10.);
#221=VECTOR('',#893,10.);
#222=VECTOR('',#908,10.);
#223=VECTOR('',#909,10.);
#224=VECTOR('',#910,10.);
#225=VECTOR('',#913,10.);
#226=VECTOR('',#914,10.);
#227=VECTOR('',#917,10.);
#228=VECTOR('',#918,10.);
#229=VECTOR('',#921,10.);
#230=VECTOR('',#928,3.75);
#231=VECTOR('',#933,1.5);
#232=VECTOR('',#938,1.5);
#233=VECTOR('',#941,10.);
#234=VECTOR('',#942,10.);
#235=VECTOR('',#943,10.);
#236=VECTOR('',#948,10.);
#237=VECTOR('',#951,10.);
#238=VECTOR('',#952,10.);
#239=VECTOR('',#957,10.);
#240=VECTOR('',#960,10.);
#241=VECTOR('',#961,10.);
#242=VECTOR('',#966,10.);
#243=VECTOR('',#969,10.);
#244=VECTOR('',#970,10.);
#245=VECTOR('',#975,10.);
#246=VECTOR('',#978,10.);
#247=VECTOR('',#979,10.);
#248=VECTOR('',#984,10.);
#249=VECTOR('',#987,10.);
#250=VECTOR('',#988,10.);
#251=VECTOR('',#993,10.);
#252=VECTOR('',#996,10.);
#253=VECTOR('',#997,10.);
#254=VECTOR('',#1002,10.);
#255=VECTOR('',#1005,10.);
#256=VECTOR('',#1006,10.);
#257=CIRCLE('',#720,1.1);
#258=CIRCLE('',#721,1.1);
#259=CIRCLE('',#723,2.375);
#260=CIRCLE('',#724,2.375);
#261=CIRCLE('',#727,1.1);
#262=CIRCLE('',#728,1.1);
#263=CIRCLE('',#730,2.375);
#264=CIRCLE('',#731,2.375);
#265=CIRCLE('',#734,1.1);
#266=CIRCLE('',#735,1.1);
#267=CIRCLE('',#737,2.375);
#268=CIRCLE('',#738,2.375);
#269=CIRCLE('',#741,1.1);
#270=CIRCLE('',#742,1.1);
#271=CIRCLE('',#744,2.375);
#272=CIRCLE('',#745,2.375);
#273=CIRCLE('',#748,2.);
#274=CIRCLE('',#749,2.);
#275=CIRCLE('',#750,2.);
#276=CIRCLE('',#751,3.575);
#277=CIRCLE('',#752,3.575);
#278=CIRCLE('',#753,2.);
#279=CIRCLE('',#754,2.);
#280=CIRCLE('',#755,2.);
#281=CIRCLE('',#756,3.75);
#282=CIRCLE('',#757,1.5);
#283=CIRCLE('',#758,1.5);
#284=CIRCLE('',#768,3.75);
#285=CIRCLE('',#770,1.5);
#286=CIRCLE('',#772,1.5);
#287=CIRCLE('',#775,2.);
#288=CIRCLE('',#778,2.);
#289=CIRCLE('',#781,2.);
#290=CIRCLE('',#784,3.575);
#291=CIRCLE('',#787,3.575);
#292=CIRCLE('',#790,2.);
#293=CIRCLE('',#793,2.);
#294=CIRCLE('',#796,2.);
#295=VERTEX_POINT('',#1015);
#296=VERTEX_POINT('',#1017);
#297=VERTEX_POINT('',#1021);
#298=VERTEX_POINT('',#1023);
#299=VERTEX_POINT('',#1028);
#300=VERTEX_POINT('',#1030);
#301=VERTEX_POINT('',#1034);
#302=VERTEX_POINT('',#1036);
#303=VERTEX_POINT('',#1041);
#304=VERTEX_POINT('',#1043);
#305=VERTEX_POINT('',#1047);
#306=VERTEX_POINT('',#1049);
#307=VERTEX_POINT('',#1054);
#308=VERTEX_POINT('',#1056);
#309=VERTEX_POINT('',#1060);
#310=VERTEX_POINT('',#1062);
#311=VERTEX_POINT('',#1067);
#312=VERTEX_POINT('',#1068);
#313=VERTEX_POINT('',#1070);
#314=VERTEX_POINT('',#1072);
#315=VERTEX_POINT('',#1074);
#316=VERTEX_POINT('',#1076);
#317=VERTEX_POINT('',#1078);
#318=VERTEX_POINT('',#1080);
#319=VERTEX_POINT('',#1082);
#320=VERTEX_POINT('',#1084);
#321=VERTEX_POINT('',#1086);
#322=VERTEX_POINT('',#1088);
#323=VERTEX_POINT('',#1090);
#324=VERTEX_POINT('',#1092);
#325=VERTEX_POINT('',#1094);
#326=VERTEX_POINT('',#1096);
#327=VERTEX_POINT('',#1098);
#328=VERTEX_POINT('',#1100);
#329=VERTEX_POINT('',#1102);
#330=VERTEX_POINT('',#1104);
#331=VERTEX_POINT('',#1107);
#332=VERTEX_POINT('',#1109);
#333=VERTEX_POINT('',#1111);
#334=VERTEX_POINT('',#1117);
#335=VERTEX_POINT('',#1119);
#336=VERTEX_POINT('',#1123);
#337=VERTEX_POINT('',#1127);
#338=VERTEX_POINT('',#1134);
#339=VERTEX_POINT('',#1138);
#340=VERTEX_POINT('',#1142);
#341=VERTEX_POINT('',#1146);
#342=VERTEX_POINT('',#1148);
#343=VERTEX_POINT('',#1152);
#344=VERTEX_POINT('',#1156);
#345=VERTEX_POINT('',#1160);
#346=VERTEX_POINT('',#1164);
#347=VERTEX_POINT('',#1168);
#348=VERTEX_POINT('',#1172);
#349=VERTEX_POINT('',#1176);
#350=VERTEX_POINT('',#1180);
#351=VERTEX_POINT('',#1184);
#352=VERTEX_POINT('',#1188);
#353=VERTEX_POINT('',#1192);
#354=VERTEX_POINT('',#1196);
#355=VERTEX_POINT('',#1200);
#356=VERTEX_POINT('',#1204);
#357=EDGE_CURVE('',#295,#295,#257,.T.);
#358=EDGE_CURVE('',#295,#296,#147,.T.);
#359=EDGE_CURVE('',#296,#296,#258,.T.);
#360=EDGE_CURVE('',#297,#297,#259,.T.);
#361=EDGE_CURVE('',#297,#298,#148,.T.);
#362=EDGE_CURVE('',#298,#298,#260,.T.);
#363=EDGE_CURVE('',#299,#299,#261,.T.);
#364=EDGE_CURVE('',#299,#300,#149,.T.);
#365=EDGE_CURVE('',#300,#300,#262,.T.);
#366=EDGE_CURVE('',#301,#301,#263,.T.);
#367=EDGE_CURVE('',#301,#302,#150,.T.);
#368=EDGE_CURVE('',#302,#302,#264,.T.);
#369=EDGE_CURVE('',#303,#303,#265,.T.);
#370=EDGE_CURVE('',#303,#304,#151,.T.);
#371=EDGE_CURVE('',#304,#304,#266,.T.);
#372=EDGE_CURVE('',#305,#305,#267,.T.);
#373=EDGE_CURVE('',#305,#306,#152,.T.);
#374=EDGE_CURVE('',#306,#306,#268,.T.);
#375=EDGE_CURVE('',#307,#307,#269,.T.);
#376=EDGE_CURVE('',#307,#308,#153,.T.);
#377=EDGE_CURVE('',#308,#308,#270,.T.);
#378=EDGE_CURVE('',#309,#309,#271,.T.);
#379=EDGE_CURVE('',#309,#310,#154,.T.);
#380=EDGE_CURVE('',#310,#310,#272,.T.);
#381=EDGE_CURVE('',#311,#312,#155,.T.);
#382=EDGE_CURVE('',#312,#313,#156,.T.);
#383=EDGE_CURVE('',#313,#314,#157,.T.);
#384=EDGE_CURVE('',#315,#314,#158,.T.);
#385=EDGE_CURVE('',#316,#315,#273,.T.);
#386=EDGE_CURVE('',#317,#316,#159,.T.);
#387=EDGE_CURVE('',#318,#317,#274,.T.);
#388=EDGE_CURVE('',#319,#318,#160,.T.);
#389=EDGE_CURVE('',#320,#319,#275,.T.);
#390=EDGE_CURVE('',#321,#320,#161,.T.);
#391=EDGE_CURVE('',#322,#321,#276,.T.);
#392=EDGE_CURVE('',#323,#322,#162,.T.);
#393=EDGE_CURVE('',#324,#323,#277,.T.);
#394=EDGE_CURVE('',#325,#324,#163,.T.);
#395=EDGE_CURVE('',#326,#325,#278,.T.);
#396=EDGE_CURVE('',#327,#326,#164,.T.);
#397=EDGE_CURVE('',#328,#327,#279,.T.);
#398=EDGE_CURVE('',#329,#328,#165,.T.);
#399=EDGE_CURVE('',#330,#329,#280,.T.);
#400=EDGE_CURVE('',#311,#330,#166,.T.);
#401=EDGE_CURVE('',#331,#331,#281,.T.);
#402=EDGE_CURVE('',#332,#332,#282,.T.);
#403=EDGE_CURVE('',#333,#333,#283,.T.);
#404=EDGE_CURVE('',#311,#334,#167,.T.);
#405=EDGE_CURVE('',#335,#334,#168,.T.);
#406=EDGE_CURVE('',#312,#335,#169,.T.);
#407=EDGE_CURVE('',#336,#335,#170,.T.);
#408=EDGE_CURVE('',#313,#336,#171,.T.);
#409=EDGE_CURVE('',#337,#336,#172,.T.);
#410=EDGE_CURVE('',#314,#337,#173,.T.);
#411=EDGE_CURVE('',#334,#337,#174,.T.);
#412=EDGE_CURVE('',#338,#338,#284,.T.);
#413=EDGE_CURVE('',#338,#331,#175,.T.);
#414=EDGE_CURVE('',#339,#339,#285,.T.);
#415=EDGE_CURVE('',#339,#332,#176,.T.);
#416=EDGE_CURVE('',#340,#340,#286,.T.);
#417=EDGE_CURVE('',#340,#333,#177,.T.);
#418=EDGE_CURVE('',#330,#341,#178,.T.);
#419=EDGE_CURVE('',#342,#341,#179,.T.);
#420=EDGE_CURVE('',#315,#342,#180,.T.);
#421=EDGE_CURVE('',#343,#342,#287,.T.);
#422=EDGE_CURVE('',#316,#343,#181,.T.);
#423=EDGE_CURVE('',#344,#343,#182,.T.);
#424=EDGE_CURVE('',#317,#344,#183,.T.);
#425=EDGE_CURVE('',#345,#344,#288,.T.);
#426=EDGE_CURVE('',#318,#345,#184,.T.);
#427=EDGE_CURVE('',#346,#345,#185,.T.);
#428=EDGE_CURVE('',#319,#346,#186,.T.);
#429=EDGE_CURVE('',#347,#346,#289,.T.);
#430=EDGE_CURVE('',#320,#347,#187,.T.);
#431=EDGE_CURVE('',#348,#347,#188,.T.);
#432=EDGE_CURVE('',#321,#348,#189,.T.);
#433=EDGE_CURVE('',#349,#348,#290,.T.);
#434=EDGE_CURVE('',#322,#349,#190,.T.);
#435=EDGE_CURVE('',#350,#349,#191,.T.);
#436=EDGE_CURVE('',#323,#350,#192,.T.);
#437=EDGE_CURVE('',#351,#350,#291,.T.);
#438=EDGE_CURVE('',#324,#351,#193,.T.);
#439=EDGE_CURVE('',#352,#351,#194,.T.);
#440=EDGE_CURVE('',#325,#352,#195,.T.);
#441=EDGE_CURVE('',#353,#352,#292,.T.);
#442=EDGE_CURVE('',#326,#353,#196,.T.);
#443=EDGE_CURVE('',#354,#353,#197,.T.);
#444=EDGE_CURVE('',#327,#354,#198,.T.);
#445=EDGE_CURVE('',#355,#354,#293,.T.);
#446=EDGE_CURVE('',#328,#355,#199,.T.);
#447=EDGE_CURVE('',#356,#355,#200,.T.);
#448=EDGE_CURVE('',#329,#356,#201,.T.);
#449=EDGE_CURVE('',#341,#356,#294,.T.);
#450=ORIENTED_EDGE('',*,*,#357,.F.);
#451=ORIENTED_EDGE('',*,*,#358,.T.);
#452=ORIENTED_EDGE('',*,*,#359,.F.);
#453=ORIENTED_EDGE('',*,*,#358,.F.);
#454=ORIENTED_EDGE('',*,*,#360,.F.);
#455=ORIENTED_EDGE('',*,*,#361,.T.);
#456=ORIENTED_EDGE('',*,*,#362,.F.);
#457=ORIENTED_EDGE('',*,*,#361,.F.);
#458=ORIENTED_EDGE('',*,*,#360,.T.);
#459=ORIENTED_EDGE('',*,*,#357,.T.);
#460=ORIENTED_EDGE('',*,*,#363,.F.);
#461=ORIENTED_EDGE('',*,*,#364,.T.);
#462=ORIENTED_EDGE('',*,*,#365,.F.);
#463=ORIENTED_EDGE('',*,*,#364,.F.);
#464=ORIENTED_EDGE('',*,*,#366,.F.);
#465=ORIENTED_EDGE('',*,*,#367,.T.);
#466=ORIENTED_EDGE('',*,*,#368,.F.);
#467=ORIENTED_EDGE('',*,*,#367,.F.);
#468=ORIENTED_EDGE('',*,*,#366,.T.);
#469=ORIENTED_EDGE('',*,*,#363,.T.);
#470=ORIENTED_EDGE('',*,*,#369,.F.);
#471=ORIENTED_EDGE('',*,*,#370,.T.);
#472=ORIENTED_EDGE('',*,*,#371,.F.);
#473=ORIENTED_EDGE('',*,*,#370,.F.);
#474=ORIENTED_EDGE('',*,*,#372,.F.);
#475=ORIENTED_EDGE('',*,*,#373,.T.);
#476=ORIENTED_EDGE('',*,*,#374,.F.);
#477=ORIENTED_EDGE('',*,*,#373,.F.);
#478=ORIENTED_EDGE('',*,*,#372,.T.);
#479=ORIENTED_EDGE('',*,*,#369,.T.);
#480=ORIENTED_EDGE('',*,*,#375,.F.);
#481=ORIENTED_EDGE('',*,*,#376,.T.);
#482=ORIENTED_EDGE('',*,*,#377,.F.);
#483=ORIENTED_EDGE('',*,*,#376,.F.);
#484=ORIENTED_EDGE('',*,*,#378,.F.);
#485=ORIENTED_EDGE('',*,*,#379,.T.);
#486=ORIENTED_EDGE('',*,*,#380,.F.);
#487=ORIENTED_EDGE('',*,*,#379,.F.);
#488=ORIENTED_EDGE('',*,*,#378,.T.);
#489=ORIENTED_EDGE('',*,*,#375,.T.);
#490=ORIENTED_EDGE('',*,*,#381,.T.);
#491=ORIENTED_EDGE('',*,*,#382,.T.);
#492=ORIENTED_EDGE('',*,*,#383,.T.);
#493=ORIENTED_EDGE('',*,*,#384,.F.);
#494=ORIENTED_EDGE('',*,*,#385,.F.);
#495=ORIENTED_EDGE('',*,*,#386,.F.);
#496=ORIENTED_EDGE('',*,*,#387,.F.);
#497=ORIENTED_EDGE('',*,*,#388,.F.);
#498=ORIENTED_EDGE('',*,*,#389,.F.);
#499=ORIENTED_EDGE('',*,*,#390,.F.);
#500=ORIENTED_EDGE('',*,*,#391,.F.);
#501=ORIENTED_EDGE('',*,*,#392,.F.);
#502=ORIENTED_EDGE('',*,*,#393,.F.);
#503=ORIENTED_EDGE('',*,*,#394,.F.);
#504=ORIENTED_EDGE('',*,*,#395,.F.);
#505=ORIENTED_EDGE('',*,*,#396,.F.);
#506=ORIENTED_EDGE('',*,*,#397,.F.);
#507=ORIENTED_EDGE('',*,*,#398,.F.);
#508=ORIENTED_EDGE('',*,*,#399,.F.);
#509=ORIENTED_EDGE('',*,*,#400,.F.);
#510=ORIENTED_EDGE('',*,*,#362,.T.);
#511=ORIENTED_EDGE('',*,*,#368,.T.);
#512=ORIENTED_EDGE('',*,*,#374,.T.);
#513=ORIENTED_EDGE('',*,*,#380,.T.);
#514=ORIENTED_EDGE('',*,*,#401,.F.);
#515=ORIENTED_EDGE('',*,*,#402,.F.);
#516=ORIENTED_EDGE('',*,*,#403,.F.);
#517=ORIENTED_EDGE('',*,*,#377,.T.);
#518=ORIENTED_EDGE('',*,*,#371,.T.);
#519=ORIENTED_EDGE('',*,*,#365,.T.);
#520=ORIENTED_EDGE('',*,*,#381,.F.);
#521=ORIENTED_EDGE('',*,*,#404,.T.);
#522=ORIENTED_EDGE('',*,*,#405,.F.);
#523=ORIENTED_EDGE('',*,*,#406,.F.);
#524=ORIENTED_EDGE('',*,*,#382,.F.);
#525=ORIENTED_EDGE('',*,*,#406,.T.);
#526=ORIENTED_EDGE('',*,*,#407,.F.);
#527=ORIENTED_EDGE('',*,*,#408,.F.);
#528=ORIENTED_EDGE('',*,*,#383,.F.);
#529=ORIENTED_EDGE('',*,*,#408,.T.);
#530=ORIENTED_EDGE('',*,*,#409,.F.);
#531=ORIENTED_EDGE('',*,*,#410,.F.);
#532=ORIENTED_EDGE('',*,*,#409,.T.);
#533=ORIENTED_EDGE('',*,*,#407,.T.);
#534=ORIENTED_EDGE('',*,*,#405,.T.);
#535=ORIENTED_EDGE('',*,*,#411,.T.);
#536=ORIENTED_EDGE('',*,*,#359,.T.);
#537=ORIENTED_EDGE('',*,*,#412,.F.);
#538=ORIENTED_EDGE('',*,*,#413,.T.);
#539=ORIENTED_EDGE('',*,*,#401,.T.);
#540=ORIENTED_EDGE('',*,*,#413,.F.);
#541=ORIENTED_EDGE('',*,*,#414,.F.);
#542=ORIENTED_EDGE('',*,*,#415,.T.);
#543=ORIENTED_EDGE('',*,*,#402,.T.);
#544=ORIENTED_EDGE('',*,*,#415,.F.);
#545=ORIENTED_EDGE('',*,*,#416,.F.);
#546=ORIENTED_EDGE('',*,*,#417,.T.);
#547=ORIENTED_EDGE('',*,*,#403,.T.);
#548=ORIENTED_EDGE('',*,*,#417,.F.);
#549=ORIENTED_EDGE('',*,*,#384,.T.);
#550=ORIENTED_EDGE('',*,*,#410,.T.);
#551=ORIENTED_EDGE('',*,*,#411,.F.);
#552=ORIENTED_EDGE('',*,*,#404,.F.);
#553=ORIENTED_EDGE('',*,*,#400,.T.);
#554=ORIENTED_EDGE('',*,*,#418,.T.);
#555=ORIENTED_EDGE('',*,*,#419,.F.);
#556=ORIENTED_EDGE('',*,*,#420,.F.);
#557=ORIENTED_EDGE('',*,*,#385,.T.);
#558=ORIENTED_EDGE('',*,*,#420,.T.);
#559=ORIENTED_EDGE('',*,*,#421,.F.);
#560=ORIENTED_EDGE('',*,*,#422,.F.);
#561=ORIENTED_EDGE('',*,*,#386,.T.);
#562=ORIENTED_EDGE('',*,*,#422,.T.);
#563=ORIENTED_EDGE('',*,*,#423,.F.);
#564=ORIENTED_EDGE('',*,*,#424,.F.);
#565=ORIENTED_EDGE('',*,*,#387,.T.);
#566=ORIENTED_EDGE('',*,*,#424,.T.);
#567=ORIENTED_EDGE('',*,*,#425,.F.);
#568=ORIENTED_EDGE('',*,*,#426,.F.);
#569=ORIENTED_EDGE('',*,*,#388,.T.);
#570=ORIENTED_EDGE('',*,*,#426,.T.);
#571=ORIENTED_EDGE('',*,*,#427,.F.);
#572=ORIENTED_EDGE('',*,*,#428,.F.);
#573=ORIENTED_EDGE('',*,*,#389,.T.);
#574=ORIENTED_EDGE('',*,*,#428,.T.);
#575=ORIENTED_EDGE('',*,*,#429,.F.);
#576=ORIENTED_EDGE('',*,*,#430,.F.);
#577=ORIENTED_EDGE('',*,*,#390,.T.);
#578=ORIENTED_EDGE('',*,*,#430,.T.);
#579=ORIENTED_EDGE('',*,*,#431,.F.);
#580=ORIENTED_EDGE('',*,*,#432,.F.);
#581=ORIENTED_EDGE('',*,*,#391,.T.);
#582=ORIENTED_EDGE('',*,*,#432,.T.);
#583=ORIENTED_EDGE('',*,*,#433,.F.);
#584=ORIENTED_EDGE('',*,*,#434,.F.);
#585=ORIENTED_EDGE('',*,*,#392,.T.);
#586=ORIENTED_EDGE('',*,*,#434,.T.);
#587=ORIENTED_EDGE('',*,*,#435,.F.);
#588=ORIENTED_EDGE('',*,*,#436,.F.);
#589=ORIENTED_EDGE('',*,*,#393,.T.);
#590=ORIENTED_EDGE('',*,*,#436,.T.);
#591=ORIENTED_EDGE('',*,*,#437,.F.);
#592=ORIENTED_EDGE('',*,*,#438,.F.);
#593=ORIENTED_EDGE('',*,*,#394,.T.);
#594=ORIENTED_EDGE('',*,*,#438,.T.);
#595=ORIENTED_EDGE('',*,*,#439,.F.);
#596=ORIENTED_EDGE('',*,*,#440,.F.);
#597=ORIENTED_EDGE('',*,*,#395,.T.);
#598=ORIENTED_EDGE('',*,*,#440,.T.);
#599=ORIENTED_EDGE('',*,*,#441,.F.);
#600=ORIENTED_EDGE('',*,*,#442,.F.);
#601=ORIENTED_EDGE('',*,*,#396,.T.);
#602=ORIENTED_EDGE('',*,*,#442,.T.);
#603=ORIENTED_EDGE('',*,*,#443,.F.);
#604=ORIENTED_EDGE('',*,*,#444,.F.);
#605=ORIENTED_EDGE('',*,*,#397,.T.);
#606=ORIENTED_EDGE('',*,*,#444,.T.);
#607=ORIENTED_EDGE('',*,*,#445,.F.);
#608=ORIENTED_EDGE('',*,*,#446,.F.);
#609=ORIENTED_EDGE('',*,*,#398,.T.);
#610=ORIENTED_EDGE('',*,*,#446,.T.);
#611=ORIENTED_EDGE('',*,*,#447,.F.);
#612=ORIENTED_EDGE('',*,*,#448,.F.);
#613=ORIENTED_EDGE('',*,*,#399,.T.);
#614=ORIENTED_EDGE('',*,*,#448,.T.);
#615=ORIENTED_EDGE('',*,*,#449,.F.);
#616=ORIENTED_EDGE('',*,*,#418,.F.);
#617=ORIENTED_EDGE('',*,*,#449,.T.);
#618=ORIENTED_EDGE('',*,*,#447,.T.);
#619=ORIENTED_EDGE('',*,*,#445,.T.);
#620=ORIENTED_EDGE('',*,*,#443,.T.);
#621=ORIENTED_EDGE('',*,*,#441,.T.);
#622=ORIENTED_EDGE('',*,*,#439,.T.);
#623=ORIENTED_EDGE('',*,*,#437,.T.);
#624=ORIENTED_EDGE('',*,*,#435,.T.);
#625=ORIENTED_EDGE('',*,*,#433,.T.);
#626=ORIENTED_EDGE('',*,*,#431,.T.);
#627=ORIENTED_EDGE('',*,*,#429,.T.);
#628=ORIENTED_EDGE('',*,*,#427,.T.);
#629=ORIENTED_EDGE('',*,*,#425,.T.);
#630=ORIENTED_EDGE('',*,*,#423,.T.);
#631=ORIENTED_EDGE('',*,*,#421,.T.);
#632=ORIENTED_EDGE('',*,*,#419,.T.);
#633=ORIENTED_EDGE('',*,*,#416,.T.);
#634=ORIENTED_EDGE('',*,*,#414,.T.);
#635=ORIENTED_EDGE('',*,*,#412,.T.);
#636=CYLINDRICAL_SURFACE('',#719,1.1);
#637=CYLINDRICAL_SURFACE('',#722,2.375);
#638=CYLINDRICAL_SURFACE('',#726,1.1);
#639=CYLINDRICAL_SURFACE('',#729,2.375);
#640=CYLINDRICAL_SURFACE('',#733,1.1);
#641=CYLINDRICAL_SURFACE('',#736,2.375);
#642=CYLINDRICAL_SURFACE('',#740,1.1);
#643=CYLINDRICAL_SURFACE('',#743,2.375);
#644=CYLINDRICAL_SURFACE('',#767,3.75);
#645=CYLINDRICAL_SURFACE('',#769,1.5);
#646=CYLINDRICAL_SURFACE('',#771,1.5);
#647=CYLINDRICAL_SURFACE('',#774,2.);
#648=CYLINDRICAL_SURFACE('',#777,2.);
#649=CYLINDRICAL_SURFACE('',#780,2.);
#650=CYLINDRICAL_SURFACE('',#783,3.575);
#651=CYLINDRICAL_SURFACE('',#786,3.575);
#652=CYLINDRICAL_SURFACE('',#789,2.);
#653=CYLINDRICAL_SURFACE('',#792,2.);
#654=CYLINDRICAL_SURFACE('',#795,2.);
#655=ADVANCED_FACE('',(#51),#636,.F.);
#656=ADVANCED_FACE('',(#52),#637,.T.);
#657=ADVANCED_FACE('',(#53,#15),#29,.T.);
#658=ADVANCED_FACE('',(#54),#638,.F.);
#659=ADVANCED_FACE('',(#55),#639,.T.);
#660=ADVANCED_FACE('',(#56,#16),#30,.T.);
#661=ADVANCED_FACE('',(#57),#640,.F.);
#662=ADVANCED_FACE('',(#58),#641,.T.);
#663=ADVANCED_FACE('',(#59,#17),#31,.T.);
#664=ADVANCED_FACE('',(#60),#642,.F.);
#665=ADVANCED_FACE('',(#61),#643,.T.);
#666=ADVANCED_FACE('',(#62,#18),#32,.T.);
#667=ADVANCED_FACE('',(#63,#19,#20,#21,#22,#23,#24,#25),#33,.F.);
#668=ADVANCED_FACE('',(#64),#34,.F.);
#669=ADVANCED_FACE('',(#65),#35,.F.);
#670=ADVANCED_FACE('',(#66),#36,.F.);
#671=ADVANCED_FACE('',(#67),#37,.T.);
#672=ADVANCED_FACE('',(#68),#38,.T.);
#673=ADVANCED_FACE('',(#69),#39,.T.);
#674=ADVANCED_FACE('',(#70),#40,.T.);
#675=ADVANCED_FACE('',(#71),#41,.F.);
#676=ADVANCED_FACE('',(#72),#644,.F.);
#677=ADVANCED_FACE('',(#73),#645,.F.);
#678=ADVANCED_FACE('',(#74),#646,.F.);
#679=ADVANCED_FACE('',(#75),#42,.T.);
#680=ADVANCED_FACE('',(#76),#647,.T.);
#681=ADVANCED_FACE('',(#77),#43,.T.);
#682=ADVANCED_FACE('',(#78),#648,.T.);
#683=ADVANCED_FACE('',(#79),#44,.T.);
#684=ADVANCED_FACE('',(#80),#649,.F.);
#685=ADVANCED_FACE('',(#81),#45,.T.);
#686=ADVANCED_FACE('',(#82),#650,.T.);
#687=ADVANCED_FACE('',(#83),#46,.T.);
#688=ADVANCED_FACE('',(#84),#651,.T.);
#689=ADVANCED_FACE('',(#85),#47,.T.);
#690=ADVANCED_FACE('',(#86),#652,.F.);
#691=ADVANCED_FACE('',(#87),#48,.T.);
#692=ADVANCED_FACE('',(#88),#653,.T.);
#693=ADVANCED_FACE('',(#89),#49,.T.);
#694=ADVANCED_FACE('',(#90),#654,.T.);
#695=ADVANCED_FACE('',(#91,#26,#27,#28),#50,.T.);
#696=CLOSED_SHELL('',(#655,#656,#657,#658,#659,#660,#661,#662,#663,#664,
#665,#666,#667,#668,#669,#670,#671,#672,#673,#674,#675,#676,#677,#678,#679,
#680,#681,#682,#683,#684,#685,#686,#687,#688,#689,#690,#691,#692,#693,#694,
#695));
#697=DERIVED_UNIT_ELEMENT(#700,1.);
#698=DERIVED_UNIT_ELEMENT(#1215,-3.);
#699=DIMENSIONAL_EXPONENTS(0.,1.,0.,0.,0.,0.,0.);
#700=(
CONVERSION_BASED_UNIT('gram',#702)
MASS_UNIT()
NAMED_UNIT(#699)
);
#701=(
MASS_UNIT()
NAMED_UNIT(*)
SI_UNIT(.KILO.,.GRAM.)
);
#702=MASS_MEASURE_WITH_UNIT(MASS_MEASURE(0.001),#701);
#703=DERIVED_UNIT((#697,#698));
#704=MEASURE_REPRESENTATION_ITEM('density measure',
POSITIVE_RATIO_MEASURE(1.),#703);
#705=PROPERTY_DEFINITION_REPRESENTATION(#710,#707);
#706=PROPERTY_DEFINITION_REPRESENTATION(#711,#708);
#707=REPRESENTATION('material name',(#709),#1212);
#708=REPRESENTATION('density',(#704),#1212);
#709=DESCRIPTIVE_REPRESENTATION_ITEM('Generic','Generic');
#710=PROPERTY_DEFINITION('material property','material name',#1222);
#711=PROPERTY_DEFINITION('material property','density of part',#1222);
#712=DATE_TIME_ROLE('creation_date');
#713=APPLIED_DATE_AND_TIME_ASSIGNMENT(#714,#712,(#1222));
#714=DATE_AND_TIME(#715,#716);
#715=CALENDAR_DATE(2026,18,6);
#716=LOCAL_TIME(0,0,0.,#717);
#717=COORDINATED_UNIVERSAL_TIME_OFFSET(0,0,.BEHIND.);
#718=AXIS2_PLACEMENT_3D('',#1013,#798,#799);
#719=AXIS2_PLACEMENT_3D('',#1014,#800,#801);
#720=AXIS2_PLACEMENT_3D('',#1016,#802,#803);
#721=AXIS2_PLACEMENT_3D('',#1019,#805,#806);
#722=AXIS2_PLACEMENT_3D('',#1020,#807,#808);
#723=AXIS2_PLACEMENT_3D('',#1022,#809,#810);
#724=AXIS2_PLACEMENT_3D('',#1025,#812,#813);
#725=AXIS2_PLACEMENT_3D('',#1026,#814,#815);
#726=AXIS2_PLACEMENT_3D('',#1027,#816,#817);
#727=AXIS2_PLACEMENT_3D('',#1029,#818,#819);
#728=AXIS2_PLACEMENT_3D('',#1032,#821,#822);
#729=AXIS2_PLACEMENT_3D('',#1033,#823,#824);
#730=AXIS2_PLACEMENT_3D('',#1035,#825,#826);
#731=AXIS2_PLACEMENT_3D('',#1038,#828,#829);
#732=AXIS2_PLACEMENT_3D('',#1039,#830,#831);
#733=AXIS2_PLACEMENT_3D('',#1040,#832,#833);
#734=AXIS2_PLACEMENT_3D('',#1042,#834,#835);
#735=AXIS2_PLACEMENT_3D('',#1045,#837,#838);
#736=AXIS2_PLACEMENT_3D('',#1046,#839,#840);
#737=AXIS2_PLACEMENT_3D('',#1048,#841,#842);
#738=AXIS2_PLACEMENT_3D('',#1051,#844,#845);
#739=AXIS2_PLACEMENT_3D('',#1052,#846,#847);
#740=AXIS2_PLACEMENT_3D('',#1053,#848,#849);
#741=AXIS2_PLACEMENT_3D('',#1055,#850,#851);
#742=AXIS2_PLACEMENT_3D('',#1058,#853,#854);
#743=AXIS2_PLACEMENT_3D('',#1059,#855,#856);
#744=AXIS2_PLACEMENT_3D('',#1061,#857,#858);
#745=AXIS2_PLACEMENT_3D('',#1064,#860,#861);
#746=AXIS2_PLACEMENT_3D('',#1065,#862,#863);
#747=AXIS2_PLACEMENT_3D('',#1066,#864,#865);
#748=AXIS2_PLACEMENT_3D('',#1077,#870,#871);
#749=AXIS2_PLACEMENT_3D('',#1081,#873,#874);
#750=AXIS2_PLACEMENT_3D('',#1085,#876,#877);
#751=AXIS2_PLACEMENT_3D('',#1089,#879,#880);
#752=AXIS2_PLACEMENT_3D('',#1093,#882,#883);
#753=AXIS2_PLACEMENT_3D('',#1097,#885,#886);
#754=AXIS2_PLACEMENT_3D('',#1101,#888,#889);
#755=AXIS2_PLACEMENT_3D('',#1105,#891,#892);
#756=AXIS2_PLACEMENT_3D('',#1108,#894,#895);
#757=AXIS2_PLACEMENT_3D('',#1110,#896,#897);
#758=AXIS2_PLACEMENT_3D('',#1112,#898,#899);
#759=AXIS2_PLACEMENT_3D('',#1113,#900,#901);
#760=AXIS2_PLACEMENT_3D('',#1114,#902,#903);
#761=AXIS2_PLACEMENT_3D('',#1115,#904,#905);
#762=AXIS2_PLACEMENT_3D('',#1116,#906,#907);
#763=AXIS2_PLACEMENT_3D('',#1122,#911,#912);
#764=AXIS2_PLACEMENT_3D('',#1126,#915,#916);
#765=AXIS2_PLACEMENT_3D('',#1130,#919,#920);
#766=AXIS2_PLACEMENT_3D('',#1132,#922,#923);
#767=AXIS2_PLACEMENT_3D('',#1133,#924,#925);
#768=AXIS2_PLACEMENT_3D('',#1135,#926,#927);
#769=AXIS2_PLACEMENT_3D('',#1137,#929,#930);
#770=AXIS2_PLACEMENT_3D('',#1139,#931,#932);
#771=AXIS2_PLACEMENT_3D('',#1141,#934,#935);
#772=AXIS2_PLACEMENT_3D('',#1143,#936,#937);
#773=AXIS2_PLACEMENT_3D('',#1145,#939,#940);
#774=AXIS2_PLACEMENT_3D('',#1151,#944,#945);
#775=AXIS2_PLACEMENT_3D('',#1153,#946,#947);
#776=AXIS2_PLACEMENT_3D('',#1155,#949,#950);
#777=AXIS2_PLACEMENT_3D('',#1159,#953,#954);
#778=AXIS2_PLACEMENT_3D('',#1161,#955,#956);
#779=AXIS2_PLACEMENT_3D('',#1163,#958,#959);
#780=AXIS2_PLACEMENT_3D('',#1167,#962,#963);
#781=AXIS2_PLACEMENT_3D('',#1169,#964,#965);
#782=AXIS2_PLACEMENT_3D('',#1171,#967,#968);
#783=AXIS2_PLACEMENT_3D('',#1175,#971,#972);
#784=AXIS2_PLACEMENT_3D('',#1177,#973,#974);
#785=AXIS2_PLACEMENT_3D('',#1179,#976,#977);
#786=AXIS2_PLACEMENT_3D('',#1183,#980,#981);
#787=AXIS2_PLACEMENT_3D('',#1185,#982,#983);
#788=AXIS2_PLACEMENT_3D('',#1187,#985,#986);
#789=AXIS2_PLACEMENT_3D('',#1191,#989,#990);
#790=AXIS2_PLACEMENT_3D('',#1193,#991,#992);
#791=AXIS2_PLACEMENT_3D('',#1195,#994,#995);
#792=AXIS2_PLACEMENT_3D('',#1199,#998,#999);
#793=AXIS2_PLACEMENT_3D('',#1201,#1000,#1001);
#794=AXIS2_PLACEMENT_3D('',#1203,#1003,#1004);
#795=AXIS2_PLACEMENT_3D('',#1207,#1007,#1008);
#796=AXIS2_PLACEMENT_3D('',#1208,#1009,#1010);
#797=AXIS2_PLACEMENT_3D('',#1209,#1011,#1012);
#798=DIRECTION('axis',(0.,0.,1.));
#799=DIRECTION('refdir',(1.,0.,0.));
#800=DIRECTION('center_axis',(0.,0.,-1.));
#801=DIRECTION('ref_axis',(1.,0.,0.));
#802=DIRECTION('center_axis',(0.,0.,1.));
#803=DIRECTION('ref_axis',(1.,0.,0.));
#804=DIRECTION('',(0.,0.,1.));
#805=DIRECTION('center_axis',(0.,0.,-1.));
#806=DIRECTION('ref_axis',(1.,0.,0.));
#807=DIRECTION('center_axis',(0.,0.,-1.));
#808=DIRECTION('ref_axis',(-1.,0.,0.));
#809=DIRECTION('center_axis',(0.,0.,-1.));
#810=DIRECTION('ref_axis',(-1.,0.,0.));
#811=DIRECTION('',(0.,0.,1.));
#812=DIRECTION('center_axis',(0.,0.,1.));
#813=DIRECTION('ref_axis',(-1.,0.,0.));
#814=DIRECTION('center_axis',(0.,0.,-1.));
#815=DIRECTION('ref_axis',(-1.,0.,0.));
#816=DIRECTION('center_axis',(0.,0.,-1.));
#817=DIRECTION('ref_axis',(1.,0.,0.));
#818=DIRECTION('center_axis',(0.,0.,1.));
#819=DIRECTION('ref_axis',(1.,0.,0.));
#820=DIRECTION('',(0.,0.,1.));
#821=DIRECTION('center_axis',(0.,0.,-1.));
#822=DIRECTION('ref_axis',(1.,0.,0.));
#823=DIRECTION('center_axis',(0.,0.,-1.));
#824=DIRECTION('ref_axis',(-1.,0.,0.));
#825=DIRECTION('center_axis',(0.,0.,-1.));
#826=DIRECTION('ref_axis',(-1.,0.,0.));
#827=DIRECTION('',(0.,0.,1.));
#828=DIRECTION('center_axis',(0.,0.,1.));
#829=DIRECTION('ref_axis',(-1.,0.,0.));
#830=DIRECTION('center_axis',(0.,0.,-1.));
#831=DIRECTION('ref_axis',(-1.,0.,0.));
#832=DIRECTION('center_axis',(0.,0.,-1.));
#833=DIRECTION('ref_axis',(1.,0.,0.));
#834=DIRECTION('center_axis',(0.,0.,1.));
#835=DIRECTION('ref_axis',(1.,0.,0.));
#836=DIRECTION('',(0.,0.,1.));
#837=DIRECTION('center_axis',(0.,0.,-1.));
#838=DIRECTION('ref_axis',(1.,0.,0.));
#839=DIRECTION('center_axis',(0.,0.,-1.));
#840=DIRECTION('ref_axis',(-1.,0.,0.));
#841=DIRECTION('center_axis',(0.,0.,-1.));
#842=DIRECTION('ref_axis',(-1.,0.,0.));
#843=DIRECTION('',(0.,0.,1.));
#844=DIRECTION('center_axis',(0.,0.,1.));
#845=DIRECTION('ref_axis',(-1.,0.,0.));
#846=DIRECTION('center_axis',(0.,0.,-1.));
#847=DIRECTION('ref_axis',(-1.,0.,0.));
#848=DIRECTION('center_axis',(0.,0.,-1.));
#849=DIRECTION('ref_axis',(1.,0.,0.));
#850=DIRECTION('center_axis',(0.,0.,1.));
#851=DIRECTION('ref_axis',(1.,0.,0.));
#852=DIRECTION('',(0.,0.,1.));
#853=DIRECTION('center_axis',(0.,0.,-1.));
#854=DIRECTION('ref_axis',(1.,0.,0.));
#855=DIRECTION('center_axis',(0.,0.,-1.));
#856=DIRECTION('ref_axis',(-1.,0.,0.));
#857=DIRECTION('center_axis',(0.,0.,-1.));
#858=DIRECTION('ref_axis',(-1.,0.,0.));
#859=DIRECTION('',(0.,0.,1.));
#860=DIRECTION('center_axis',(0.,0.,1.));
#861=DIRECTION('ref_axis',(-1.,0.,0.));
#862=DIRECTION('center_axis',(0.,0.,-1.));
#863=DIRECTION('ref_axis',(-1.,0.,0.));
#864=DIRECTION('center_axis',(0.,0.,1.));
#865=DIRECTION('ref_axis',(1.,0.,0.));
#866=DIRECTION('',(0.,1.,0.));
#867=DIRECTION('',(-1.,0.,0.));
#868=DIRECTION('',(0.,-1.,0.));
#869=DIRECTION('',(1.,7.24058494319151E-16,0.));
#870=DIRECTION('center_axis',(0.,0.,1.));
#871=DIRECTION('ref_axis',(-1.,1.11022302462516E-15,0.));
#872=DIRECTION('',(0.,-1.,0.));
#873=DIRECTION('center_axis',(0.,0.,1.));
#874=DIRECTION('ref_axis',(0.,1.,0.));
#875=DIRECTION('',(-1.,6.66133814775098E-15,0.));
#876=DIRECTION('center_axis',(0.,0.,-1.));
#877=DIRECTION('ref_axis',(1.11022302462516E-15,1.,0.));
#878=DIRECTION('',(-8.3893807978238E-13,-1.,0.));
#879=DIRECTION('center_axis',(0.,0.,1.));
#880=DIRECTION('ref_axis',(-1.24220758000018E-15,1.,0.));
#881=DIRECTION('',(-1.,-2.11471052309554E-16,0.));
#882=DIRECTION('center_axis',(0.,0.,1.));
#883=DIRECTION('ref_axis',(1.,-6.21103790000087E-16,0.));
#884=DIRECTION('',(2.5726405390444E-16,1.,0.));
#885=DIRECTION('center_axis',(0.,0.,-1.));
#886=DIRECTION('ref_axis',(1.,-1.11022302462516E-15,0.));
#887=DIRECTION('',(-1.,9.99200722171362E-15,0.));
#888=DIRECTION('center_axis',(0.,0.,1.));
#889=DIRECTION('ref_axis',(1.,1.11022302462516E-15,0.));
#890=DIRECTION('',(-2.22044604925032E-15,1.,0.));
#891=DIRECTION('center_axis',(0.,0.,1.));
#892=DIRECTION('ref_axis',(0.,-1.,0.));
#893=DIRECTION('',(1.,7.24058494319151E-16,0.));
#894=DIRECTION('center_axis',(0.,0.,-1.));
#895=DIRECTION('ref_axis',(-1.,0.,0.));
#896=DIRECTION('center_axis',(0.,0.,-1.));
#897=DIRECTION('ref_axis',(-1.,0.,0.));
#898=DIRECTION('center_axis',(0.,0.,-1.));
#899=DIRECTION('ref_axis',(-1.,0.,0.));
#900=DIRECTION('center_axis',(0.,0.,1.));
#901=DIRECTION('ref_axis',(1.,0.,0.));
#902=DIRECTION('center_axis',(0.,0.,1.));
#903=DIRECTION('ref_axis',(1.,0.,0.));
#904=DIRECTION('center_axis',(0.,0.,1.));
#905=DIRECTION('ref_axis',(1.,0.,0.));
#906=DIRECTION('center_axis',(1.,0.,0.));
#907=DIRECTION('ref_axis',(0.,-1.,0.));
#908=DIRECTION('',(0.,0.,-1.));
#909=DIRECTION('',(0.,-1.,0.));
#910=DIRECTION('',(0.,0.,-1.));
#911=DIRECTION('center_axis',(0.,1.,0.));
#912=DIRECTION('ref_axis',(1.,0.,0.));
#913=DIRECTION('',(1.,0.,0.));
#914=DIRECTION('',(0.,0.,-1.));
#915=DIRECTION('center_axis',(-1.,0.,0.));
#916=DIRECTION('ref_axis',(0.,1.,0.));
#917=DIRECTION('',(0.,1.,0.));
#918=DIRECTION('',(0.,0.,-1.));
#919=DIRECTION('center_axis',(0.,0.,-1.));
#920=DIRECTION('ref_axis',(-1.,0.,0.));
#921=DIRECTION('',(-1.,0.,0.));
#922=DIRECTION('center_axis',(0.,0.,1.));
#923=DIRECTION('ref_axis',(1.,0.,0.));
#924=DIRECTION('center_axis',(0.,0.,1.));
#925=DIRECTION('ref_axis',(-1.,0.,0.));
#926=DIRECTION('center_axis',(0.,0.,-1.));
#927=DIRECTION('ref_axis',(-1.,0.,0.));
#928=DIRECTION('',(0.,0.,-1.));
#929=DIRECTION('center_axis',(0.,0.,1.));
#930=DIRECTION('ref_axis',(-1.,0.,0.));
#931=DIRECTION('center_axis',(0.,0.,-1.));
#932=DIRECTION('ref_axis',(-1.,0.,0.));
#933=DIRECTION('',(0.,0.,-1.));
#934=DIRECTION('center_axis',(0.,0.,1.));
#935=DIRECTION('ref_axis',(-1.,0.,0.));
#936=DIRECTION('center_axis',(0.,0.,-1.));
#937=DIRECTION('ref_axis',(-1.,0.,0.));
#938=DIRECTION('',(0.,0.,-1.));
#939=DIRECTION('center_axis',(7.24058494319151E-16,-1.,0.));
#940=DIRECTION('ref_axis',(1.,7.24058494319151E-16,0.));
#941=DIRECTION('',(0.,0.,1.));
#942=DIRECTION('',(1.,7.24058494319151E-16,0.));
#943=DIRECTION('',(0.,0.,1.));
#944=DIRECTION('center_axis',(0.,0.,1.));
#945=DIRECTION('ref_axis',(-1.,1.11022302462516E-15,0.));
#946=DIRECTION('center_axis',(0.,0.,1.));
#947=DIRECTION('ref_axis',(-1.,1.11022302462516E-15,0.));
#948=DIRECTION('',(0.,0.,1.));
#949=DIRECTION('center_axis',(-1.,0.,0.));
#950=DIRECTION('ref_axis',(0.,-1.,0.));
#951=DIRECTION('',(0.,-1.,0.));
#952=DIRECTION('',(0.,0.,1.));
#953=DIRECTION('center_axis',(0.,0.,1.));
#954=DIRECTION('ref_axis',(0.,1.,0.));
#955=DIRECTION('center_axis',(0.,0.,1.));
#956=DIRECTION('ref_axis',(0.,1.,0.));
#957=DIRECTION('',(0.,0.,1.));
#958=DIRECTION('center_axis',(6.66133814775098E-15,1.,0.));
#959=DIRECTION('ref_axis',(-1.,6.66133814775098E-15,0.));
#960=DIRECTION('',(-1.,6.66133814775098E-15,0.));
#961=DIRECTION('',(0.,0.,1.));
#962=DIRECTION('center_axis',(0.,0.,1.));
#963=DIRECTION('ref_axis',(1.11022302462516E-15,1.,0.));
#964=DIRECTION('center_axis',(0.,0.,-1.));
#965=DIRECTION('ref_axis',(1.11022302462516E-15,1.,0.));
#966=DIRECTION('',(0.,0.,1.));
#967=DIRECTION('center_axis',(-1.,8.3893807978238E-13,0.));
#968=DIRECTION('ref_axis',(-8.3893807978238E-13,-1.,0.));
#969=DIRECTION('',(-8.3893807978238E-13,-1.,0.));
#970=DIRECTION('',(0.,0.,1.));
#971=DIRECTION('center_axis',(0.,0.,1.));
#972=DIRECTION('ref_axis',(-1.24220758000018E-15,1.,0.));
#973=DIRECTION('center_axis',(0.,0.,1.));
#974=DIRECTION('ref_axis',(-1.24220758000018E-15,1.,0.));
#975=DIRECTION('',(0.,0.,1.));
#976=DIRECTION('center_axis',(-2.11471052309553E-16,1.,0.));
#977=DIRECTION('ref_axis',(-1.,-2.11471052309554E-16,0.));
#978=DIRECTION('',(-1.,-2.11471052309554E-16,0.));
#979=DIRECTION('',(0.,0.,1.));
#980=DIRECTION('center_axis',(0.,0.,1.));
#981=DIRECTION('ref_axis',(1.,-6.21103790000087E-16,0.));
#982=DIRECTION('center_axis',(0.,0.,1.));
#983=DIRECTION('ref_axis',(1.,-6.21103790000087E-16,0.));
#984=DIRECTION('',(0.,0.,1.));
#985=DIRECTION('center_axis',(1.,-2.5726405390444E-16,0.));
#986=DIRECTION('ref_axis',(2.5726405390444E-16,1.,0.));
#987=DIRECTION('',(2.5726405390444E-16,1.,0.));
#988=DIRECTION('',(0.,0.,1.));
#989=DIRECTION('center_axis',(0.,0.,1.));
#990=DIRECTION('ref_axis',(1.,-1.11022302462516E-15,0.));
#991=DIRECTION('center_axis',(0.,0.,-1.));
#992=DIRECTION('ref_axis',(1.,-1.11022302462516E-15,0.));
#993=DIRECTION('',(0.,0.,1.));
#994=DIRECTION('center_axis',(9.99200722171362E-15,1.,0.));
#995=DIRECTION('ref_axis',(-1.,9.99200722171362E-15,0.));
#996=DIRECTION('',(-1.,9.99200722171362E-15,0.));
#997=DIRECTION('',(0.,0.,1.));
#998=DIRECTION('center_axis',(0.,0.,1.));
#999=DIRECTION('ref_axis',(1.,1.11022302462516E-15,0.));
#1000=DIRECTION('center_axis',(0.,0.,1.));
#1001=DIRECTION('ref_axis',(1.,1.11022302462516E-15,0.));
#1002=DIRECTION('',(0.,0.,1.));
#1003=DIRECTION('center_axis',(1.,2.22044604925032E-15,0.));
#1004=DIRECTION('ref_axis',(-2.22044604925032E-15,1.,0.));
#1005=DIRECTION('',(-2.22044604925032E-15,1.,0.));
#1006=DIRECTION('',(0.,0.,1.));
#1007=DIRECTION('center_axis',(0.,0.,1.));
#1008=DIRECTION('ref_axis',(0.,-1.,0.));
#1009=DIRECTION('center_axis',(0.,0.,1.));
#1010=DIRECTION('ref_axis',(0.,-1.,0.));
#1011=DIRECTION('center_axis',(0.,0.,1.));
#1012=DIRECTION('ref_axis',(1.,0.,0.));
#1013=CARTESIAN_POINT('',(0.,0.,0.));
#1014=CARTESIAN_POINT('Origin',(-10.4999999999898,-2.15649999999577,0.));
#1015=CARTESIAN_POINT('',(-11.5999999999898,-2.15649999999577,-4.));
#1016=CARTESIAN_POINT('Origin',(-10.4999999999898,-2.15649999999577,-4.));
#1017=CARTESIAN_POINT('',(-11.5999999999898,-2.15649999999577,0.));
#1018=CARTESIAN_POINT('',(-11.5999999999898,-2.15649999999577,0.));
#1019=CARTESIAN_POINT('Origin',(-10.4999999999898,-2.15649999999577,0.));
#1020=CARTESIAN_POINT('Origin',(-10.4999999999898,-2.15649999999577,0.));
#1021=CARTESIAN_POINT('',(-8.12499999998983,-2.15649999999577,-4.));
#1022=CARTESIAN_POINT('Origin',(-10.4999999999898,-2.15649999999577,-4.));
#1023=CARTESIAN_POINT('',(-8.12499999998983,-2.15649999999577,0.));
#1024=CARTESIAN_POINT('',(-8.12499999998983,-2.15649999999577,0.));
#1025=CARTESIAN_POINT('Origin',(-10.4999999999898,-2.15649999999577,0.));
#1026=CARTESIAN_POINT('Origin',(-10.4999999999898,-2.15649999999577,-4.));
#1027=CARTESIAN_POINT('Origin',(-10.4999999999898,10.3435000000042,0.));
#1028=CARTESIAN_POINT('',(-11.5999999999898,10.3435000000042,-4.));
#1029=CARTESIAN_POINT('Origin',(-10.4999999999898,10.3435000000042,-4.));
#1030=CARTESIAN_POINT('',(-11.5999999999898,10.3435000000042,0.));
#1031=CARTESIAN_POINT('',(-11.5999999999898,10.3435000000042,0.));
#1032=CARTESIAN_POINT('Origin',(-10.4999999999898,10.3435000000042,0.));
#1033=CARTESIAN_POINT('Origin',(-10.4999999999898,10.3435000000042,0.));
#1034=CARTESIAN_POINT('',(-8.12499999998983,10.3435000000042,-4.));
#1035=CARTESIAN_POINT('Origin',(-10.4999999999898,10.3435000000042,-4.));
#1036=CARTESIAN_POINT('',(-8.12499999998983,10.3435000000042,0.));
#1037=CARTESIAN_POINT('',(-8.12499999998983,10.3435000000042,0.));
#1038=CARTESIAN_POINT('Origin',(-10.4999999999898,10.3435000000042,0.));
#1039=CARTESIAN_POINT('Origin',(-10.4999999999898,10.3435000000042,-4.));
#1040=CARTESIAN_POINT('Origin',(10.5000000000102,-2.15649999999577,0.));
#1041=CARTESIAN_POINT('',(9.40000000001018,-2.15649999999577,-4.));
#1042=CARTESIAN_POINT('Origin',(10.5000000000102,-2.15649999999577,-4.));
#1043=CARTESIAN_POINT('',(9.40000000001018,-2.15649999999577,0.));
#1044=CARTESIAN_POINT('',(9.40000000001018,-2.15649999999577,0.));
#1045=CARTESIAN_POINT('Origin',(10.5000000000102,-2.15649999999577,0.));
#1046=CARTESIAN_POINT('Origin',(10.5000000000102,-2.15649999999577,0.));
#1047=CARTESIAN_POINT('',(12.8750000000102,-2.15649999999577,-4.));
#1048=CARTESIAN_POINT('Origin',(10.5000000000102,-2.15649999999577,-4.));
#1049=CARTESIAN_POINT('',(12.8750000000102,-2.15649999999577,0.));
#1050=CARTESIAN_POINT('',(12.8750000000102,-2.15649999999577,0.));
#1051=CARTESIAN_POINT('Origin',(10.5000000000102,-2.15649999999577,0.));
#1052=CARTESIAN_POINT('Origin',(10.5000000000102,-2.15649999999577,-4.));
#1053=CARTESIAN_POINT('Origin',(10.5000000000102,10.3435000000042,0.));
#1054=CARTESIAN_POINT('',(9.40000000001018,10.3435000000042,-4.));
#1055=CARTESIAN_POINT('Origin',(10.5000000000102,10.3435000000042,-4.));
#1056=CARTESIAN_POINT('',(9.40000000001018,10.3435000000042,0.));
#1057=CARTESIAN_POINT('',(9.40000000001018,10.3435000000042,0.));
#1058=CARTESIAN_POINT('Origin',(10.5000000000102,10.3435000000042,0.));
#1059=CARTESIAN_POINT('Origin',(10.5000000000102,10.3435000000042,0.));
#1060=CARTESIAN_POINT('',(12.8750000000102,10.3435000000042,-4.));
#1061=CARTESIAN_POINT('Origin',(10.5000000000102,10.3435000000042,-4.));
#1062=CARTESIAN_POINT('',(12.8750000000102,10.3435000000042,0.));
#1063=CARTESIAN_POINT('',(12.8750000000102,10.3435000000042,0.));
#1064=CARTESIAN_POINT('Origin',(10.5000000000102,10.3435000000042,0.));
#1065=CARTESIAN_POINT('Origin',(10.5000000000102,10.3435000000042,-4.));
#1066=CARTESIAN_POINT('Origin',(-4.37649916307237E-12,-1.11022302462516E-15,
0.));
#1067=CARTESIAN_POINT('',(7.87500000001018,-13.9185000000042,0.));
#1068=CARTESIAN_POINT('',(7.87500000001018,-12.9185000000042,0.));
#1069=CARTESIAN_POINT('',(7.87500000001018,-6.45925000000211,0.));
#1070=CARTESIAN_POINT('',(-7.87499999998984,-12.9185000000042,0.));
#1071=CARTESIAN_POINT('',(-3.93749999999711,-12.9185000000042,0.));
#1072=CARTESIAN_POINT('',(-7.87499999998984,-13.9185000000042,0.));
#1073=CARTESIAN_POINT('',(-7.87499999998984,-6.95925000000211,0.));
#1074=CARTESIAN_POINT('',(-17.0750000000102,-13.9185000000042,0.));
#1075=CARTESIAN_POINT('',(-17.0750000000102,-13.9185000000042,0.));
#1076=CARTESIAN_POINT('',(-19.0750000000102,-11.9185000000042,0.));
#1077=CARTESIAN_POINT('Origin',(-17.0750000000102,-11.9185000000042,0.));
#1078=CARTESIAN_POINT('',(-19.0750000000102,-10.9185000000042,0.));
#1079=CARTESIAN_POINT('',(-19.0750000000102,-10.9185000000042,0.));
#1080=CARTESIAN_POINT('',(-17.0750000000102,-8.91850000000423,0.));
#1081=CARTESIAN_POINT('Origin',(-17.0750000000102,-10.9185000000042,0.));
#1082=CARTESIAN_POINT('',(-16.0750000000102,-8.91850000000423,0.));
#1083=CARTESIAN_POINT('',(-16.0750000000102,-8.91850000000423,0.));
#1084=CARTESIAN_POINT('',(-14.0750000000043,-6.91850000000423,0.));
#1085=CARTESIAN_POINT('Origin',(-16.0750000000102,-6.91850000000423,0.));
#1086=CARTESIAN_POINT('',(-14.0749999999898,10.3435000000042,0.));
#1087=CARTESIAN_POINT('',(-14.0749999999898,10.3435000000042,0.));
#1088=CARTESIAN_POINT('',(-10.4999999999898,13.9185000000042,0.));
#1089=CARTESIAN_POINT('Origin',(-10.4999999999898,10.3435000000042,0.));
#1090=CARTESIAN_POINT('',(10.5000000000102,13.9185000000042,0.));
#1091=CARTESIAN_POINT('',(10.5000000000102,13.9185000000042,0.));
#1092=CARTESIAN_POINT('',(14.0750000000102,10.3435000000042,0.));
#1093=CARTESIAN_POINT('Origin',(10.5000000000102,10.3435000000042,0.));
#1094=CARTESIAN_POINT('',(14.0750000000102,-6.91850000000423,0.));
#1095=CARTESIAN_POINT('',(14.0750000000102,-6.91850000000423,0.));
#1096=CARTESIAN_POINT('',(16.0750000000102,-8.91850000000423,0.));
#1097=CARTESIAN_POINT('Origin',(16.0750000000102,-6.91850000000423,0.));
#1098=CARTESIAN_POINT('',(17.0750000000014,-8.91850000000424,0.));
#1099=CARTESIAN_POINT('',(17.0750000000014,-8.91850000000424,0.));
#1100=CARTESIAN_POINT('',(19.0750000000014,-10.9185000000042,0.));
#1101=CARTESIAN_POINT('Origin',(17.0750000000014,-10.9185000000042,0.));
#1102=CARTESIAN_POINT('',(19.0750000000014,-11.9185000000042,0.));
#1103=CARTESIAN_POINT('',(19.0750000000014,-11.9185000000042,0.));
#1104=CARTESIAN_POINT('',(17.0750000000014,-13.9185000000042,0.));
#1105=CARTESIAN_POINT('Origin',(17.0750000000014,-11.9185000000042,0.));
#1106=CARTESIAN_POINT('',(-17.0750000000102,-13.9185000000042,0.));
#1107=CARTESIAN_POINT('',(3.75000000001017,-2.15649999999577,0.));
#1108=CARTESIAN_POINT('Origin',(1.01652020134679E-11,-2.15649999999577,
0.));
#1109=CARTESIAN_POINT('',(-15.0750000000102,-11.4185000000042,0.));
#1110=CARTESIAN_POINT('Origin',(-16.5750000000102,-11.4185000000042,0.));
#1111=CARTESIAN_POINT('',(18.0750000000014,-11.4185000000042,0.));
#1112=CARTESIAN_POINT('Origin',(16.5750000000014,-11.4185000000042,0.));
#1113=CARTESIAN_POINT('Origin',(-4.37649916307237E-12,-1.11022302462516E-15,
0.));
#1114=CARTESIAN_POINT('Origin',(-4.37649916307237E-12,-1.11022302462516E-15,
0.));
#1115=CARTESIAN_POINT('Origin',(-4.37649916307237E-12,-1.11022302462516E-15,
0.));
#1116=CARTESIAN_POINT('Origin',(7.87500000001018,-12.9185000000042,0.));
#1117=CARTESIAN_POINT('',(7.87500000001018,-13.9185000000042,-4.75));
#1118=CARTESIAN_POINT('',(7.87500000001018,-13.9185000000042,0.));
#1119=CARTESIAN_POINT('',(7.87500000001018,-12.9185000000042,-4.75));
#1120=CARTESIAN_POINT('',(7.87500000001018,-12.9185000000042,-4.75));
#1121=CARTESIAN_POINT('',(7.87500000001018,-12.9185000000042,0.));
#1122=CARTESIAN_POINT('Origin',(-7.87499999998984,-12.9185000000042,0.));
#1123=CARTESIAN_POINT('',(-7.87499999998984,-12.9185000000042,-4.75));
#1124=CARTESIAN_POINT('',(-7.87499999998984,-12.9185000000042,-4.75));
#1125=CARTESIAN_POINT('',(-7.87499999998984,-12.9185000000042,0.));
#1126=CARTESIAN_POINT('Origin',(-7.87499999998984,-13.9185000000042,0.));
#1127=CARTESIAN_POINT('',(-7.87499999998984,-13.9185000000042,-4.75));
#1128=CARTESIAN_POINT('',(-7.87499999998984,-13.9185000000042,-4.75));
#1129=CARTESIAN_POINT('',(-7.87499999998984,-13.9185000000042,0.));
#1130=CARTESIAN_POINT('Origin',(1.01718633516157E-11,-13.4185000000042,
-4.75));
#1131=CARTESIAN_POINT('',(7.87500000001018,-13.9185000000042,-4.75));
#1132=CARTESIAN_POINT('Origin',(-4.37649916307237E-12,-1.11022302462516E-15,
0.));
#1133=CARTESIAN_POINT('Origin',(1.01652020134679E-11,-2.15649999999577,
0.));
#1134=CARTESIAN_POINT('',(3.75000000001017,-2.15649999999577,2.));
#1135=CARTESIAN_POINT('Origin',(1.01652020134679E-11,-2.15649999999577,
2.));
#1136=CARTESIAN_POINT('',(3.75000000001017,-2.15649999999577,0.));
#1137=CARTESIAN_POINT('Origin',(-16.5750000000102,-11.4185000000042,0.));
#1138=CARTESIAN_POINT('',(-15.0750000000102,-11.4185000000042,2.));
#1139=CARTESIAN_POINT('Origin',(-16.5750000000102,-11.4185000000042,2.));
#1140=CARTESIAN_POINT('',(-15.0750000000102,-11.4185000000042,0.));
#1141=CARTESIAN_POINT('Origin',(16.5750000000014,-11.4185000000042,0.));
#1142=CARTESIAN_POINT('',(18.0750000000014,-11.4185000000042,2.));
#1143=CARTESIAN_POINT('Origin',(16.5750000000014,-11.4185000000042,2.));
#1144=CARTESIAN_POINT('',(18.0750000000014,-11.4185000000042,0.));
#1145=CARTESIAN_POINT('Origin',(-17.0750000000102,-13.9185000000042,0.));
#1146=CARTESIAN_POINT('',(17.0750000000014,-13.9185000000042,2.));
#1147=CARTESIAN_POINT('',(17.0750000000014,-13.9185000000042,0.));
#1148=CARTESIAN_POINT('',(-17.0750000000102,-13.9185000000042,2.));
#1149=CARTESIAN_POINT('',(-17.0750000000102,-13.9185000000042,2.));
#1150=CARTESIAN_POINT('',(-17.0750000000102,-13.9185000000042,0.));
#1151=CARTESIAN_POINT('Origin',(-17.0750000000102,-11.9185000000042,0.));
#1152=CARTESIAN_POINT('',(-19.0750000000102,-11.9185000000042,2.));
#1153=CARTESIAN_POINT('Origin',(-17.0750000000102,-11.9185000000042,2.));
#1154=CARTESIAN_POINT('',(-19.0750000000102,-11.9185000000042,0.));
#1155=CARTESIAN_POINT('Origin',(-19.0750000000102,-10.9185000000042,0.));
#1156=CARTESIAN_POINT('',(-19.0750000000102,-10.9185000000042,2.));
#1157=CARTESIAN_POINT('',(-19.0750000000102,-10.9185000000042,2.));
#1158=CARTESIAN_POINT('',(-19.0750000000102,-10.9185000000042,0.));
#1159=CARTESIAN_POINT('Origin',(-17.0750000000102,-10.9185000000042,0.));
#1160=CARTESIAN_POINT('',(-17.0750000000102,-8.91850000000423,2.));
#1161=CARTESIAN_POINT('Origin',(-17.0750000000102,-10.9185000000042,2.));
#1162=CARTESIAN_POINT('',(-17.0750000000102,-8.91850000000423,0.));
#1163=CARTESIAN_POINT('Origin',(-16.0750000000102,-8.91850000000423,0.));
#1164=CARTESIAN_POINT('',(-16.0750000000102,-8.91850000000423,2.));
#1165=CARTESIAN_POINT('',(-16.0750000000102,-8.91850000000423,2.));
#1166=CARTESIAN_POINT('',(-16.0750000000102,-8.91850000000423,0.));
#1167=CARTESIAN_POINT('Origin',(-16.0750000000102,-6.91850000000423,0.));
#1168=CARTESIAN_POINT('',(-14.0750000000043,-6.91850000000423,2.));
#1169=CARTESIAN_POINT('Origin',(-16.0750000000102,-6.91850000000423,2.));
#1170=CARTESIAN_POINT('',(-14.0750000000043,-6.91850000000423,0.));
#1171=CARTESIAN_POINT('Origin',(-14.0749999999898,10.3435000000042,0.));
#1172=CARTESIAN_POINT('',(-14.0749999999898,10.3435000000042,2.));
#1173=CARTESIAN_POINT('',(-14.0749999999898,10.3435000000042,2.));
#1174=CARTESIAN_POINT('',(-14.0749999999898,10.3435000000042,0.));
#1175=CARTESIAN_POINT('Origin',(-10.4999999999898,10.3435000000042,0.));
#1176=CARTESIAN_POINT('',(-10.4999999999898,13.9185000000042,2.));
#1177=CARTESIAN_POINT('Origin',(-10.4999999999898,10.3435000000042,2.));
#1178=CARTESIAN_POINT('',(-10.4999999999898,13.9185000000042,0.));
#1179=CARTESIAN_POINT('Origin',(10.5000000000102,13.9185000000042,0.));
#1180=CARTESIAN_POINT('',(10.5000000000102,13.9185000000042,2.));
#1181=CARTESIAN_POINT('',(10.5000000000102,13.9185000000042,2.));
#1182=CARTESIAN_POINT('',(10.5000000000102,13.9185000000042,0.));
#1183=CARTESIAN_POINT('Origin',(10.5000000000102,10.3435000000042,0.));
#1184=CARTESIAN_POINT('',(14.0750000000102,10.3435000000042,2.));
#1185=CARTESIAN_POINT('Origin',(10.5000000000102,10.3435000000042,2.));
#1186=CARTESIAN_POINT('',(14.0750000000102,10.3435000000042,0.));
#1187=CARTESIAN_POINT('Origin',(14.0750000000102,-6.91850000000423,0.));
#1188=CARTESIAN_POINT('',(14.0750000000102,-6.91850000000423,2.));
#1189=CARTESIAN_POINT('',(14.0750000000102,-6.91850000000423,2.));
#1190=CARTESIAN_POINT('',(14.0750000000102,-6.91850000000423,0.));
#1191=CARTESIAN_POINT('Origin',(16.0750000000102,-6.91850000000423,0.));
#1192=CARTESIAN_POINT('',(16.0750000000102,-8.91850000000423,2.));
#1193=CARTESIAN_POINT('Origin',(16.0750000000102,-6.91850000000423,2.));
#1194=CARTESIAN_POINT('',(16.0750000000102,-8.91850000000423,0.));
#1195=CARTESIAN_POINT('Origin',(17.0750000000014,-8.91850000000424,0.));
#1196=CARTESIAN_POINT('',(17.0750000000014,-8.91850000000424,2.));
#1197=CARTESIAN_POINT('',(17.0750000000014,-8.91850000000424,2.));
#1198=CARTESIAN_POINT('',(17.0750000000014,-8.91850000000424,0.));
#1199=CARTESIAN_POINT('Origin',(17.0750000000014,-10.9185000000042,0.));
#1200=CARTESIAN_POINT('',(19.0750000000014,-10.9185000000042,2.));
#1201=CARTESIAN_POINT('Origin',(17.0750000000014,-10.9185000000042,2.));
#1202=CARTESIAN_POINT('',(19.0750000000014,-10.9185000000042,0.));
#1203=CARTESIAN_POINT('Origin',(19.0750000000014,-11.9185000000042,0.));
#1204=CARTESIAN_POINT('',(19.0750000000014,-11.9185000000042,2.));
#1205=CARTESIAN_POINT('',(19.0750000000014,-11.9185000000042,2.));
#1206=CARTESIAN_POINT('',(19.0750000000014,-11.9185000000042,0.));
#1207=CARTESIAN_POINT('Origin',(17.0750000000014,-11.9185000000042,0.));
#1208=CARTESIAN_POINT('Origin',(17.0750000000014,-11.9185000000042,2.));
#1209=CARTESIAN_POINT('Origin',(-4.37649916307237E-12,-1.11022302462516E-15,
2.));
#1210=UNCERTAINTY_MEASURE_WITH_UNIT(LENGTH_MEASURE(0.01),#1214,
'DISTANCE_ACCURACY_VALUE',
'Maximum model space distance between geometric entities at asserted c
onnectivities');
#1211=UNCERTAINTY_MEASURE_WITH_UNIT(LENGTH_MEASURE(0.01),#1214,
'DISTANCE_ACCURACY_VALUE',
'Maximum model space distance between geometric entities at asserted c
onnectivities');
#1212=(
GEOMETRIC_REPRESENTATION_CONTEXT(3)
GLOBAL_UNCERTAINTY_ASSIGNED_CONTEXT((#1210))
GLOBAL_UNIT_ASSIGNED_CONTEXT((#1214,#1216,#1217))
REPRESENTATION_CONTEXT('','3D')
);
#1213=(
GEOMETRIC_REPRESENTATION_CONTEXT(3)
GLOBAL_UNCERTAINTY_ASSIGNED_CONTEXT((#1211))
GLOBAL_UNIT_ASSIGNED_CONTEXT((#1214,#1216,#1217))
REPRESENTATION_CONTEXT('','3D')
);
#1214=(
LENGTH_UNIT()
NAMED_UNIT(*)
SI_UNIT(.MILLI.,.METRE.)
);
#1215=(
LENGTH_UNIT()
NAMED_UNIT(*)
SI_UNIT(.CENTI.,.METRE.)
);
#1216=(
NAMED_UNIT(*)
PLANE_ANGLE_UNIT()
SI_UNIT($,.RADIAN.)
);
#1217=(
NAMED_UNIT(*)
SI_UNIT($,.STERADIAN.)
SOLID_ANGLE_UNIT()
);
#1218=SHAPE_DEFINITION_REPRESENTATION(#1219,#1220);
#1219=PRODUCT_DEFINITION_SHAPE('',$,#1222);
#1220=SHAPE_REPRESENTATION('',(#718),#1212);
#1221=PRODUCT_DEFINITION_CONTEXT('part definition',#1226,'design');
#1222=PRODUCT_DEFINITION('rpi_camera_case_t','rpi_camera_case_t',#1223,
#1221);
#1223=PRODUCT_DEFINITION_FORMATION('',$,#1228);
#1224=PRODUCT_RELATED_PRODUCT_CATEGORY('rpi_camera_case_t',
'rpi_camera_case_t',(#1228));
#1225=APPLICATION_PROTOCOL_DEFINITION('international standard',
'automotive_design',2009,#1226);
#1226=APPLICATION_CONTEXT(
'Core Data for Automotive Mechanical Design Process');
#1227=PRODUCT_CONTEXT('part definition',#1226,'mechanical');
#1228=PRODUCT('rpi_camera_case_t','rpi_camera_case_t',$,(#1227));
#1229=PRESENTATION_STYLE_ASSIGNMENT((#1230));
#1230=SURFACE_STYLE_USAGE(.BOTH.,#1233);
#1231=SURFACE_STYLE_RENDERING_WITH_PROPERTIES($,#1237,(#1232));
#1232=SURFACE_STYLE_TRANSPARENT(0.);
#1233=SURFACE_SIDE_STYLE('',(#1234,#1231));
#1234=SURFACE_STYLE_FILL_AREA(#1235);
#1235=FILL_AREA_STYLE('',(#1236));
#1236=FILL_AREA_STYLE_COLOUR('',#1237);
#1237=COLOUR_RGB('',0.749019607843137,0.749019607843137,0.749019607843137);
ENDSEC;
END-ISO-10303-21;
