ISO-10303-21;
HEADER;
/* Generated by software containing ST-Developer
 * from STEP Tools, Inc. (www.steptools.com) 
 */

FILE_DESCRIPTION(
/* description */ (''),
/* implementation_level */ '2;1');

FILE_NAME(
/* name */ 'camera_case_b.stp',
/* time_stamp */ '2026-07-01T10:28:36-04:00',
/* author */ ('Student'),
/* organization */ (''),
/* preprocessor_version */ 'ST-DEVELOPER v20.1',
/* originating_system */ 'Autodesk Inventor 2027',
/* authorisation */ '');

FILE_SCHEMA (('AUTOMOTIVE_DESIGN { 1 0 10303 214 3 1 1 }'));
ENDSEC;

DATA;
#10=MECHANICAL_DESIGN_GEOMETRIC_PRESENTATION_REPRESENTATION('',(#13),#1522);
#11=SHAPE_REPRESENTATION_RELATIONSHIP('SRR','None',#1529,#12);
#12=ADVANCED_BREP_SHAPE_REPRESENTATION('',(#14),#1521);
#13=STYLED_ITEM('',(#1538),#14);
#14=MANIFOLD_SOLID_BREP('Solid1',#889);
#15=FACE_BOUND('',#104,.T.);
#16=FACE_BOUND('',#105,.T.);
#17=FACE_BOUND('',#116,.T.);
#18=FACE_BOUND('',#119,.T.);
#19=FACE_BOUND('',#137,.T.);
#20=FACE_BOUND('',#138,.T.);
#21=FACE_BOUND('',#139,.T.);
#22=FACE_BOUND('',#140,.T.);
#23=FACE_BOUND('',#143,.T.);
#24=FACE_BOUND('',#147,.T.);
#25=FACE_BOUND('',#150,.T.);
#26=FACE_BOUND('',#154,.T.);
#27=PLANE('',#921);
#28=PLANE('',#925);
#29=PLANE('',#926);
#30=PLANE('',#941);
#31=PLANE('',#944);
#32=PLANE('',#947);
#33=PLANE('',#950);
#34=PLANE('',#951);
#35=PLANE('',#954);
#36=PLANE('',#955);
#37=PLANE('',#960);
#38=PLANE('',#961);
#39=PLANE('',#962);
#40=PLANE('',#963);
#41=PLANE('',#964);
#42=PLANE('',#965);
#43=PLANE('',#966);
#44=PLANE('',#973);
#45=PLANE('',#978);
#46=PLANE('',#981);
#47=PLANE('',#988);
#48=PLANE('',#993);
#49=PLANE('',#996);
#50=PLANE('',#1001);
#51=FACE_OUTER_BOUND('',#97,.T.);
#52=FACE_OUTER_BOUND('',#98,.T.);
#53=FACE_OUTER_BOUND('',#99,.T.);
#54=FACE_OUTER_BOUND('',#100,.T.);
#55=FACE_OUTER_BOUND('',#101,.T.);
#56=FACE_OUTER_BOUND('',#102,.T.);
#57=FACE_OUTER_BOUND('',#103,.T.);
#58=FACE_OUTER_BOUND('',#106,.T.);
#59=FACE_OUTER_BOUND('',#107,.T.);
#60=FACE_OUTER_BOUND('',#108,.T.);
#61=FACE_OUTER_BOUND('',#109,.T.);
#62=FACE_OUTER_BOUND('',#110,.T.);
#63=FACE_OUTER_BOUND('',#111,.T.);
#64=FACE_OUTER_BOUND('',#112,.T.);
#65=FACE_OUTER_BOUND('',#113,.T.);
#66=FACE_OUTER_BOUND('',#114,.T.);
#67=FACE_OUTER_BOUND('',#115,.T.);
#68=FACE_OUTER_BOUND('',#117,.T.);
#69=FACE_OUTER_BOUND('',#118,.T.);
#70=FACE_OUTER_BOUND('',#120,.T.);
#71=FACE_OUTER_BOUND('',#121,.T.);
#72=FACE_OUTER_BOUND('',#122,.T.);
#73=FACE_OUTER_BOUND('',#123,.T.);
#74=FACE_OUTER_BOUND('',#124,.T.);
#75=FACE_OUTER_BOUND('',#125,.T.);
#76=FACE_OUTER_BOUND('',#126,.T.);
#77=FACE_OUTER_BOUND('',#127,.T.);
#78=FACE_OUTER_BOUND('',#128,.T.);
#79=FACE_OUTER_BOUND('',#129,.T.);
#80=FACE_OUTER_BOUND('',#130,.T.);
#81=FACE_OUTER_BOUND('',#131,.T.);
#82=FACE_OUTER_BOUND('',#132,.T.);
#83=FACE_OUTER_BOUND('',#133,.T.);
#84=FACE_OUTER_BOUND('',#134,.T.);
#85=FACE_OUTER_BOUND('',#135,.T.);
#86=FACE_OUTER_BOUND('',#136,.T.);
#87=FACE_OUTER_BOUND('',#141,.T.);
#88=FACE_OUTER_BOUND('',#142,.T.);
#89=FACE_OUTER_BOUND('',#144,.T.);
#90=FACE_OUTER_BOUND('',#145,.T.);
#91=FACE_OUTER_BOUND('',#146,.T.);
#92=FACE_OUTER_BOUND('',#148,.T.);
#93=FACE_OUTER_BOUND('',#149,.T.);
#94=FACE_OUTER_BOUND('',#151,.T.);
#95=FACE_OUTER_BOUND('',#152,.T.);
#96=FACE_OUTER_BOUND('',#153,.T.);
#97=EDGE_LOOP('',(#569,#570,#571,#572));
#98=EDGE_LOOP('',(#573,#574,#575,#576));
#99=EDGE_LOOP('',(#577,#578,#579,#580));
#100=EDGE_LOOP('',(#581,#582,#583,#584));
#101=EDGE_LOOP('',(#585,#586,#587,#588));
#102=EDGE_LOOP('',(#589,#590,#591,#592));
#103=EDGE_LOOP('',(#593,#594,#595,#596,#597,#598,#599,#600,#601,#602,#603,
#604,#605,#606,#607,#608,#609,#610,#611,#612,#613,#614,#615,#616,#617,#618));
#104=EDGE_LOOP('',(#619));
#105=EDGE_LOOP('',(#620));
#106=EDGE_LOOP('',(#621,#622,#623,#624));
#107=EDGE_LOOP('',(#625,#626,#627,#628));
#108=EDGE_LOOP('',(#629,#630,#631,#632,#633,#634,#635,#636,#637,#638,#639,
#640));
#109=EDGE_LOOP('',(#641,#642,#643,#644));
#110=EDGE_LOOP('',(#645,#646,#647,#648));
#111=EDGE_LOOP('',(#649,#650,#651,#652));
#112=EDGE_LOOP('',(#653,#654,#655,#656,#657,#658));
#113=EDGE_LOOP('',(#659,#660,#661,#662));
#114=EDGE_LOOP('',(#663,#664,#665,#666));
#115=EDGE_LOOP('',(#667,#668,#669,#670,#671,#672,#673));
#116=EDGE_LOOP('',(#674));
#117=EDGE_LOOP('',(#675,#676,#677,#678));
#118=EDGE_LOOP('',(#679,#680,#681,#682,#683,#684,#685));
#119=EDGE_LOOP('',(#686));
#120=EDGE_LOOP('',(#687,#688,#689,#690,#691,#692));
#121=EDGE_LOOP('',(#693,#694,#695,#696));
#122=EDGE_LOOP('',(#697,#698,#699,#700));
#123=EDGE_LOOP('',(#701,#702,#703,#704));
#124=EDGE_LOOP('',(#705,#706,#707,#708,#709,#710,#711,#712));
#125=EDGE_LOOP('',(#713,#714,#715,#716,#717,#718));
#126=EDGE_LOOP('',(#719,#720,#721,#722,#723,#724,#725,#726));
#127=EDGE_LOOP('',(#727,#728,#729,#730));
#128=EDGE_LOOP('',(#731,#732,#733,#734));
#129=EDGE_LOOP('',(#735,#736,#737,#738));
#130=EDGE_LOOP('',(#739,#740,#741,#742));
#131=EDGE_LOOP('',(#743,#744,#745,#746));
#132=EDGE_LOOP('',(#747,#748,#749,#750,#751,#752,#753,#754,#755,#756,#757,
#758,#759,#760,#761,#762));
#133=EDGE_LOOP('',(#763,#764,#765,#766));
#134=EDGE_LOOP('',(#767,#768,#769,#770));
#135=EDGE_LOOP('',(#771,#772,#773,#774));
#136=EDGE_LOOP('',(#775,#776,#777,#778,#779,#780));
#137=EDGE_LOOP('',(#781));
#138=EDGE_LOOP('',(#782));
#139=EDGE_LOOP('',(#783));
#140=EDGE_LOOP('',(#784));
#141=EDGE_LOOP('',(#785,#786,#787,#788));
#142=EDGE_LOOP('',(#789,#790));
#143=EDGE_LOOP('',(#791));
#144=EDGE_LOOP('',(#792,#793,#794,#795));
#145=EDGE_LOOP('',(#796,#797,#798,#799));
#146=EDGE_LOOP('',(#800,#801));
#147=EDGE_LOOP('',(#802));
#148=EDGE_LOOP('',(#803,#804,#805,#806));
#149=EDGE_LOOP('',(#807,#808));
#150=EDGE_LOOP('',(#809));
#151=EDGE_LOOP('',(#810,#811,#812,#813));
#152=EDGE_LOOP('',(#814,#815,#816,#817));
#153=EDGE_LOOP('',(#818,#819));
#154=EDGE_LOOP('',(#820));
#155=CIRCLE('',#913,2.375);
#156=CIRCLE('',#914,2.375);
#157=CIRCLE('',#916,2.375);
#158=CIRCLE('',#917,2.375);
#159=CIRCLE('',#919,2.);
#160=CIRCLE('',#920,2.);
#161=CIRCLE('',#923,2.);
#162=CIRCLE('',#924,2.);
#163=CIRCLE('',#927,2.375);
#164=CIRCLE('',#928,2.375);
#165=CIRCLE('',#929,2.);
#166=CIRCLE('',#930,2.);
#167=CIRCLE('',#931,2.);
#168=CIRCLE('',#932,3.575);
#169=CIRCLE('',#933,3.575);
#170=CIRCLE('',#934,2.);
#171=CIRCLE('',#935,1.5);
#172=CIRCLE('',#936,1.5);
#173=CIRCLE('',#938,2.);
#174=CIRCLE('',#940,2.);
#175=CIRCLE('',#943,2.);
#176=CIRCLE('',#946,2.);
#177=CIRCLE('',#949,1.5);
#178=CIRCLE('',#953,1.5);
#179=CIRCLE('',#957,2.375);
#180=CIRCLE('',#959,2.375);
#181=CIRCLE('',#968,2.375);
#182=CIRCLE('',#969,2.375);
#183=CIRCLE('',#971,2.375);
#184=CIRCLE('',#972,2.375);
#185=CIRCLE('',#974,2.375);
#186=CIRCLE('',#975,2.375);
#187=CIRCLE('',#977,3.575);
#188=CIRCLE('',#980,3.575);
#189=CIRCLE('',#982,1.1);
#190=CIRCLE('',#983,1.1);
#191=CIRCLE('',#984,1.1);
#192=CIRCLE('',#985,1.1);
#193=CIRCLE('',#987,1.1);
#194=CIRCLE('',#990,1.1);
#195=CIRCLE('',#992,2.375);
#196=CIRCLE('',#995,1.1);
#197=CIRCLE('',#998,1.1);
#198=CIRCLE('',#1000,2.375);
#199=LINE('',#1270,#281);
#200=LINE('',#1274,#282);
#201=LINE('',#1279,#283);
#202=LINE('',#1283,#284);
#203=LINE('',#1290,#285);
#204=LINE('',#1293,#286);
#205=LINE('',#1296,#287);
#206=LINE('',#1298,#288);
#207=LINE('',#1299,#289);
#208=LINE('',#1305,#290);
#209=LINE('',#1308,#291);
#210=LINE('',#1311,#292);
#211=LINE('',#1313,#293);
#212=LINE('',#1314,#294);
#213=LINE('',#1317,#295);
#214=LINE('',#1319,#296);
#215=LINE('',#1321,#297);
#216=LINE('',#1323,#298);
#217=LINE('',#1327,#299);
#218=LINE('',#1331,#300);
#219=LINE('',#1333,#301);
#220=LINE('',#1335,#302);
#221=LINE('',#1337,#303);
#222=LINE('',#1341,#304);
#223=LINE('',#1345,#305);
#224=LINE('',#1349,#306);
#225=LINE('',#1353,#307);
#226=LINE('',#1356,#308);
#227=LINE('',#1368,#309);
#228=LINE('',#1369,#310);
#229=LINE('',#1372,#311);
#230=LINE('',#1374,#312);
#231=LINE('',#1376,#313);
#232=LINE('',#1378,#314);
#233=LINE('',#1379,#315);
#234=LINE('',#1381,#316);
#235=LINE('',#1383,#317);
#236=LINE('',#1384,#318);
#237=LINE('',#1389,#319);
#238=LINE('',#1390,#320);
#239=LINE('',#1393,#321);
#240=LINE('',#1394,#322);
#241=LINE('',#1398,#323);
#242=LINE('',#1400,#324);
#243=LINE('',#1402,#325);
#244=LINE('',#1403,#326);
#245=LINE('',#1407,#327);
#246=LINE('',#1409,#328);
#247=LINE('',#1414,#329);
#248=LINE('',#1416,#330);
#249=LINE('',#1419,#331);
#250=LINE('',#1420,#332);
#251=LINE('',#1425,#333);
#252=LINE('',#1426,#334);
#253=LINE('',#1431,#335);
#254=LINE('',#1432,#336);
#255=LINE('',#1436,#337);
#256=LINE('',#1437,#338);
#257=LINE('',#1438,#339);
#258=LINE('',#1441,#340);
#259=LINE('',#1442,#341);
#260=LINE('',#1443,#342);
#261=LINE('',#1444,#343);
#262=LINE('',#1448,#344);
#263=LINE('',#1449,#345);
#264=LINE('',#1450,#346);
#265=LINE('',#1453,#347);
#266=LINE('',#1454,#348);
#267=LINE('',#1456,#349);
#268=LINE('',#1457,#350);
#269=LINE('',#1458,#351);
#270=LINE('',#1461,#352);
#271=LINE('',#1462,#353);
#272=LINE('',#1464,#354);
#273=LINE('',#1466,#355);
#274=LINE('',#1479,#356);
#275=LINE('',#1482,#357);
#276=LINE('',#1483,#358);
#277=LINE('',#1497,#359);
#278=LINE('',#1502,#360);
#279=LINE('',#1509,#361);
#280=LINE('',#1514,#362);
#281=VECTOR('',#1006,2.375);
#282=VECTOR('',#1009,10.);
#283=VECTOR('',#1014,2.375);
#284=VECTOR('',#1017,10.);
#285=VECTOR('',#1024,10.);
#286=VECTOR('',#1027,10.);
#287=VECTOR('',#1030,10.);
#288=VECTOR('',#1031,10.);
#289=VECTOR('',#1032,10.);
#290=VECTOR('',#1037,10.);
#291=VECTOR('',#1040,10.);
#292=VECTOR('',#1043,10.);
#293=VECTOR('',#1044,10.);
#294=VECTOR('',#1045,10.);
#295=VECTOR('',#1048,10.);
#296=VECTOR('',#1049,10.);
#297=VECTOR('',#1050,10.);
#298=VECTOR('',#1051,10.);
#299=VECTOR('',#1054,10.);
#300=VECTOR('',#1057,10.);
#301=VECTOR('',#1058,10.);
#302=VECTOR('',#1059,10.);
#303=VECTOR('',#1060,10.);
#304=VECTOR('',#1063,10.);
#305=VECTOR('',#1066,10.);
#306=VECTOR('',#1069,10.);
#307=VECTOR('',#1072,10.);
#308=VECTOR('',#1075,10.);
#309=VECTOR('',#1090,10.);
#310=VECTOR('',#1091,10.);
#311=VECTOR('',#1094,10.);
#312=VECTOR('',#1095,10.);
#313=VECTOR('',#1096,10.);
#314=VECTOR('',#1097,10.);
#315=VECTOR('',#1098,10.);
#316=VECTOR('',#1099,10.);
#317=VECTOR('',#1100,10.);
#318=VECTOR('',#1101,10.);
#319=VECTOR('',#1106,10.);
#320=VECTOR('',#1107,10.);
#321=VECTOR('',#1110,10.);
#322=VECTOR('',#1111,10.);
#323=VECTOR('',#1116,10.);
#324=VECTOR('',#1119,10.);
#325=VECTOR('',#1120,10.);
#326=VECTOR('',#1121,10.);
#327=VECTOR('',#1126,1.5);
#328=VECTOR('',#1129,10.);
#329=VECTOR('',#1136,1.5);
#330=VECTOR('',#1139,10.);
#331=VECTOR('',#1142,10.);
#332=VECTOR('',#1143,10.);
#333=VECTOR('',#1148,10.);
#334=VECTOR('',#1149,10.);
#335=VECTOR('',#1154,10.);
#336=VECTOR('',#1155,10.);
#337=VECTOR('',#1158,10.);
#338=VECTOR('',#1159,10.);
#339=VECTOR('',#1160,10.);
#340=VECTOR('',#1163,10.);
#341=VECTOR('',#1164,10.);
#342=VECTOR('',#1165,10.);
#343=VECTOR('',#1166,10.);
#344=VECTOR('',#1169,10.);
#345=VECTOR('',#1170,10.);
#346=VECTOR('',#1171,10.);
#347=VECTOR('',#1174,10.);
#348=VECTOR('',#1175,10.);
#349=VECTOR('',#1176,10.);
#350=VECTOR('',#1177,10.);
#351=VECTOR('',#1178,10.);
#352=VECTOR('',#1181,10.);
#353=VECTOR('',#1182,10.);
#354=VECTOR('',#1185,10.);
#355=VECTOR('',#1188,10.);
#356=VECTOR('',#1211,10.);
#357=VECTOR('',#1214,10.);
#358=VECTOR('',#1215,10.);
#359=VECTOR('',#1232,1.1);
#360=VECTOR('',#1239,1.1);
#361=VECTOR('',#1250,1.1);
#362=VECTOR('',#1257,1.1);
#363=VERTEX_POINT('',#1268);
#364=VERTEX_POINT('',#1269);
#365=VERTEX_POINT('',#1271);
#366=VERTEX_POINT('',#1273);
#367=VERTEX_POINT('',#1277);
#368=VERTEX_POINT('',#1278);
#369=VERTEX_POINT('',#1280);
#370=VERTEX_POINT('',#1282);
#371=VERTEX_POINT('',#1286);
#372=VERTEX_POINT('',#1287);
#373=VERTEX_POINT('',#1289);
#374=VERTEX_POINT('',#1291);
#375=VERTEX_POINT('',#1295);
#376=VERTEX_POINT('',#1297);
#377=VERTEX_POINT('',#1301);
#378=VERTEX_POINT('',#1302);
#379=VERTEX_POINT('',#1304);
#380=VERTEX_POINT('',#1306);
#381=VERTEX_POINT('',#1310);
#382=VERTEX_POINT('',#1312);
#383=VERTEX_POINT('',#1316);
#384=VERTEX_POINT('',#1318);
#385=VERTEX_POINT('',#1320);
#386=VERTEX_POINT('',#1322);
#387=VERTEX_POINT('',#1324);
#388=VERTEX_POINT('',#1326);
#389=VERTEX_POINT('',#1328);
#390=VERTEX_POINT('',#1330);
#391=VERTEX_POINT('',#1332);
#392=VERTEX_POINT('',#1334);
#393=VERTEX_POINT('',#1336);
#394=VERTEX_POINT('',#1338);
#395=VERTEX_POINT('',#1340);
#396=VERTEX_POINT('',#1342);
#397=VERTEX_POINT('',#1344);
#398=VERTEX_POINT('',#1346);
#399=VERTEX_POINT('',#1348);
#400=VERTEX_POINT('',#1350);
#401=VERTEX_POINT('',#1352);
#402=VERTEX_POINT('',#1354);
#403=VERTEX_POINT('',#1358);
#404=VERTEX_POINT('',#1360);
#405=VERTEX_POINT('',#1365);
#406=VERTEX_POINT('',#1366);
#407=VERTEX_POINT('',#1371);
#408=VERTEX_POINT('',#1373);
#409=VERTEX_POINT('',#1375);
#410=VERTEX_POINT('',#1377);
#411=VERTEX_POINT('',#1380);
#412=VERTEX_POINT('',#1382);
#413=VERTEX_POINT('',#1386);
#414=VERTEX_POINT('',#1387);
#415=VERTEX_POINT('',#1392);
#416=VERTEX_POINT('',#1396);
#417=VERTEX_POINT('',#1401);
#418=VERTEX_POINT('',#1405);
#419=VERTEX_POINT('',#1412);
#420=VERTEX_POINT('',#1418);
#421=VERTEX_POINT('',#1422);
#422=VERTEX_POINT('',#1423);
#423=VERTEX_POINT('',#1428);
#424=VERTEX_POINT('',#1429);
#425=VERTEX_POINT('',#1434);
#426=VERTEX_POINT('',#1435);
#427=VERTEX_POINT('',#1440);
#428=VERTEX_POINT('',#1446);
#429=VERTEX_POINT('',#1447);
#430=VERTEX_POINT('',#1452);
#431=VERTEX_POINT('',#1455);
#432=VERTEX_POINT('',#1460);
#433=VERTEX_POINT('',#1477);
#434=VERTEX_POINT('',#1481);
#435=VERTEX_POINT('',#1487);
#436=VERTEX_POINT('',#1489);
#437=VERTEX_POINT('',#1491);
#438=VERTEX_POINT('',#1493);
#439=VERTEX_POINT('',#1496);
#440=VERTEX_POINT('',#1501);
#441=VERTEX_POINT('',#1508);
#442=VERTEX_POINT('',#1513);
#443=EDGE_CURVE('',#363,#364,#199,.T.);
#444=EDGE_CURVE('',#365,#363,#155,.T.);
#445=EDGE_CURVE('',#366,#365,#200,.T.);
#446=EDGE_CURVE('',#366,#364,#156,.T.);
#447=EDGE_CURVE('',#367,#368,#201,.T.);
#448=EDGE_CURVE('',#369,#367,#157,.T.);
#449=EDGE_CURVE('',#370,#369,#202,.T.);
#450=EDGE_CURVE('',#370,#368,#158,.T.);
#451=EDGE_CURVE('',#371,#372,#159,.T.);
#452=EDGE_CURVE('',#372,#373,#203,.T.);
#453=EDGE_CURVE('',#373,#374,#160,.T.);
#454=EDGE_CURVE('',#374,#371,#204,.T.);
#455=EDGE_CURVE('',#375,#372,#205,.T.);
#456=EDGE_CURVE('',#376,#375,#206,.T.);
#457=EDGE_CURVE('',#373,#376,#207,.T.);
#458=EDGE_CURVE('',#377,#378,#161,.T.);
#459=EDGE_CURVE('',#378,#379,#208,.T.);
#460=EDGE_CURVE('',#379,#380,#162,.T.);
#461=EDGE_CURVE('',#380,#377,#209,.T.);
#462=EDGE_CURVE('',#381,#380,#210,.T.);
#463=EDGE_CURVE('',#382,#381,#211,.T.);
#464=EDGE_CURVE('',#377,#382,#212,.T.);
#465=EDGE_CURVE('',#379,#383,#213,.T.);
#466=EDGE_CURVE('',#383,#384,#214,.T.);
#467=EDGE_CURVE('',#384,#385,#215,.T.);
#468=EDGE_CURVE('',#385,#386,#216,.T.);
#469=EDGE_CURVE('',#386,#387,#163,.T.);
#470=EDGE_CURVE('',#387,#388,#217,.T.);
#471=EDGE_CURVE('',#388,#389,#164,.T.);
#472=EDGE_CURVE('',#389,#390,#218,.T.);
#473=EDGE_CURVE('',#390,#391,#219,.T.);
#474=EDGE_CURVE('',#391,#392,#220,.T.);
#475=EDGE_CURVE('',#392,#393,#221,.T.);
#476=EDGE_CURVE('',#394,#393,#165,.T.);
#477=EDGE_CURVE('',#394,#395,#222,.T.);
#478=EDGE_CURVE('',#396,#395,#166,.T.);
#479=EDGE_CURVE('',#396,#397,#223,.T.);
#480=EDGE_CURVE('',#398,#397,#167,.T.);
#481=EDGE_CURVE('',#398,#399,#224,.T.);
#482=EDGE_CURVE('',#399,#400,#168,.T.);
#483=EDGE_CURVE('',#400,#401,#225,.T.);
#484=EDGE_CURVE('',#401,#402,#169,.T.);
#485=EDGE_CURVE('',#402,#374,#226,.T.);
#486=EDGE_CURVE('',#381,#376,#170,.T.);
#487=EDGE_CURVE('',#403,#403,#171,.T.);
#488=EDGE_CURVE('',#404,#404,#172,.T.);
#489=EDGE_CURVE('',#375,#382,#173,.T.);
#490=EDGE_CURVE('',#405,#406,#174,.T.);
#491=EDGE_CURVE('',#406,#394,#227,.T.);
#492=EDGE_CURVE('',#393,#405,#228,.T.);
#493=EDGE_CURVE('',#407,#378,#229,.T.);
#494=EDGE_CURVE('',#407,#408,#230,.T.);
#495=EDGE_CURVE('',#409,#408,#231,.T.);
#496=EDGE_CURVE('',#410,#409,#232,.T.);
#497=EDGE_CURVE('',#405,#410,#233,.T.);
#498=EDGE_CURVE('',#411,#392,#234,.T.);
#499=EDGE_CURVE('',#411,#412,#235,.T.);
#500=EDGE_CURVE('',#412,#383,#236,.T.);
#501=EDGE_CURVE('',#413,#414,#175,.T.);
#502=EDGE_CURVE('',#414,#396,#237,.T.);
#503=EDGE_CURVE('',#395,#413,#238,.T.);
#504=EDGE_CURVE('',#415,#414,#239,.T.);
#505=EDGE_CURVE('',#397,#415,#240,.T.);
#506=EDGE_CURVE('',#415,#416,#176,.T.);
#507=EDGE_CURVE('',#416,#398,#241,.T.);
#508=EDGE_CURVE('',#416,#410,#242,.T.);
#509=EDGE_CURVE('',#417,#409,#243,.T.);
#510=EDGE_CURVE('',#417,#399,#244,.T.);
#511=EDGE_CURVE('',#418,#418,#177,.T.);
#512=EDGE_CURVE('',#418,#403,#245,.T.);
#513=EDGE_CURVE('',#413,#406,#246,.T.);
#514=EDGE_CURVE('',#419,#419,#178,.T.);
#515=EDGE_CURVE('',#419,#404,#247,.T.);
#516=EDGE_CURVE('',#407,#371,#248,.T.);
#517=EDGE_CURVE('',#402,#420,#249,.T.);
#518=EDGE_CURVE('',#408,#420,#250,.T.);
#519=EDGE_CURVE('',#421,#422,#179,.T.);
#520=EDGE_CURVE('',#422,#387,#251,.T.);
#521=EDGE_CURVE('',#421,#386,#252,.T.);
#522=EDGE_CURVE('',#423,#424,#180,.T.);
#523=EDGE_CURVE('',#424,#389,#253,.T.);
#524=EDGE_CURVE('',#423,#388,#254,.T.);
#525=EDGE_CURVE('',#425,#426,#255,.T.);
#526=EDGE_CURVE('',#425,#391,#256,.T.);
#527=EDGE_CURVE('',#426,#390,#257,.T.);
#528=EDGE_CURVE('',#365,#427,#258,.T.);
#529=EDGE_CURVE('',#366,#365,#259,.T.);
#530=EDGE_CURVE('',#426,#365,#260,.T.);
#531=EDGE_CURVE('',#424,#427,#261,.T.);
#532=EDGE_CURVE('',#428,#429,#262,.T.);
#533=EDGE_CURVE('',#423,#428,#263,.T.);
#534=EDGE_CURVE('',#422,#429,#264,.T.);
#535=EDGE_CURVE('',#369,#430,#265,.T.);
#536=EDGE_CURVE('',#370,#369,#266,.T.);
#537=EDGE_CURVE('',#431,#369,#267,.T.);
#538=EDGE_CURVE('',#421,#431,#268,.T.);
#539=EDGE_CURVE('',#430,#385,#269,.T.);
#540=EDGE_CURVE('',#430,#432,#270,.T.);
#541=EDGE_CURVE('',#432,#384,#271,.T.);
#542=EDGE_CURVE('',#432,#412,#272,.T.);
#543=EDGE_CURVE('',#411,#425,#273,.T.);
#544=EDGE_CURVE('',#429,#431,#181,.T.);
#545=EDGE_CURVE('',#422,#421,#182,.T.);
#546=EDGE_CURVE('',#427,#428,#183,.T.);
#547=EDGE_CURVE('',#424,#423,#184,.T.);
#548=EDGE_CURVE('',#363,#365,#185,.T.);
#549=EDGE_CURVE('',#367,#369,#186,.T.);
#550=EDGE_CURVE('',#433,#417,#187,.T.);
#551=EDGE_CURVE('',#400,#433,#274,.T.);
#552=EDGE_CURVE('',#434,#433,#275,.T.);
#553=EDGE_CURVE('',#401,#434,#276,.T.);
#554=EDGE_CURVE('',#420,#434,#188,.T.);
#555=EDGE_CURVE('',#435,#435,#189,.T.);
#556=EDGE_CURVE('',#436,#436,#190,.T.);
#557=EDGE_CURVE('',#437,#437,#191,.T.);
#558=EDGE_CURVE('',#438,#438,#192,.T.);
#559=EDGE_CURVE('',#435,#439,#277,.T.);
#560=EDGE_CURVE('',#439,#439,#193,.T.);
#561=EDGE_CURVE('',#438,#440,#278,.T.);
#562=EDGE_CURVE('',#440,#440,#194,.T.);
#563=EDGE_CURVE('',#368,#370,#195,.T.);
#564=EDGE_CURVE('',#436,#441,#279,.T.);
#565=EDGE_CURVE('',#441,#441,#196,.T.);
#566=EDGE_CURVE('',#437,#442,#280,.T.);
#567=EDGE_CURVE('',#442,#442,#197,.T.);
#568=EDGE_CURVE('',#364,#366,#198,.T.);
#569=ORIENTED_EDGE('',*,*,#443,.F.);
#570=ORIENTED_EDGE('',*,*,#444,.F.);
#571=ORIENTED_EDGE('',*,*,#445,.F.);
#572=ORIENTED_EDGE('',*,*,#446,.T.);
#573=ORIENTED_EDGE('',*,*,#447,.F.);
#574=ORIENTED_EDGE('',*,*,#448,.F.);
#575=ORIENTED_EDGE('',*,*,#449,.F.);
#576=ORIENTED_EDGE('',*,*,#450,.T.);
#577=ORIENTED_EDGE('',*,*,#451,.T.);
#578=ORIENTED_EDGE('',*,*,#452,.T.);
#579=ORIENTED_EDGE('',*,*,#453,.T.);
#580=ORIENTED_EDGE('',*,*,#454,.T.);
#581=ORIENTED_EDGE('',*,*,#452,.F.);
#582=ORIENTED_EDGE('',*,*,#455,.F.);
#583=ORIENTED_EDGE('',*,*,#456,.F.);
#584=ORIENTED_EDGE('',*,*,#457,.F.);
#585=ORIENTED_EDGE('',*,*,#458,.T.);
#586=ORIENTED_EDGE('',*,*,#459,.T.);
#587=ORIENTED_EDGE('',*,*,#460,.T.);
#588=ORIENTED_EDGE('',*,*,#461,.T.);
#589=ORIENTED_EDGE('',*,*,#461,.F.);
#590=ORIENTED_EDGE('',*,*,#462,.F.);
#591=ORIENTED_EDGE('',*,*,#463,.F.);
#592=ORIENTED_EDGE('',*,*,#464,.F.);
#593=ORIENTED_EDGE('',*,*,#460,.F.);
#594=ORIENTED_EDGE('',*,*,#465,.T.);
#595=ORIENTED_EDGE('',*,*,#466,.T.);
#596=ORIENTED_EDGE('',*,*,#467,.T.);
#597=ORIENTED_EDGE('',*,*,#468,.T.);
#598=ORIENTED_EDGE('',*,*,#469,.T.);
#599=ORIENTED_EDGE('',*,*,#470,.T.);
#600=ORIENTED_EDGE('',*,*,#471,.T.);
#601=ORIENTED_EDGE('',*,*,#472,.T.);
#602=ORIENTED_EDGE('',*,*,#473,.T.);
#603=ORIENTED_EDGE('',*,*,#474,.T.);
#604=ORIENTED_EDGE('',*,*,#475,.T.);
#605=ORIENTED_EDGE('',*,*,#476,.F.);
#606=ORIENTED_EDGE('',*,*,#477,.T.);
#607=ORIENTED_EDGE('',*,*,#478,.F.);
#608=ORIENTED_EDGE('',*,*,#479,.T.);
#609=ORIENTED_EDGE('',*,*,#480,.F.);
#610=ORIENTED_EDGE('',*,*,#481,.T.);
#611=ORIENTED_EDGE('',*,*,#482,.T.);
#612=ORIENTED_EDGE('',*,*,#483,.T.);
#613=ORIENTED_EDGE('',*,*,#484,.T.);
#614=ORIENTED_EDGE('',*,*,#485,.T.);
#615=ORIENTED_EDGE('',*,*,#453,.F.);
#616=ORIENTED_EDGE('',*,*,#457,.T.);
#617=ORIENTED_EDGE('',*,*,#486,.F.);
#618=ORIENTED_EDGE('',*,*,#462,.T.);
#619=ORIENTED_EDGE('',*,*,#487,.T.);
#620=ORIENTED_EDGE('',*,*,#488,.T.);
#621=ORIENTED_EDGE('',*,*,#489,.T.);
#622=ORIENTED_EDGE('',*,*,#463,.T.);
#623=ORIENTED_EDGE('',*,*,#486,.T.);
#624=ORIENTED_EDGE('',*,*,#456,.T.);
#625=ORIENTED_EDGE('',*,*,#490,.T.);
#626=ORIENTED_EDGE('',*,*,#491,.T.);
#627=ORIENTED_EDGE('',*,*,#476,.T.);
#628=ORIENTED_EDGE('',*,*,#492,.T.);
#629=ORIENTED_EDGE('',*,*,#459,.F.);
#630=ORIENTED_EDGE('',*,*,#493,.F.);
#631=ORIENTED_EDGE('',*,*,#494,.T.);
#632=ORIENTED_EDGE('',*,*,#495,.F.);
#633=ORIENTED_EDGE('',*,*,#496,.F.);
#634=ORIENTED_EDGE('',*,*,#497,.F.);
#635=ORIENTED_EDGE('',*,*,#492,.F.);
#636=ORIENTED_EDGE('',*,*,#475,.F.);
#637=ORIENTED_EDGE('',*,*,#498,.F.);
#638=ORIENTED_EDGE('',*,*,#499,.T.);
#639=ORIENTED_EDGE('',*,*,#500,.T.);
#640=ORIENTED_EDGE('',*,*,#465,.F.);
#641=ORIENTED_EDGE('',*,*,#501,.T.);
#642=ORIENTED_EDGE('',*,*,#502,.T.);
#643=ORIENTED_EDGE('',*,*,#478,.T.);
#644=ORIENTED_EDGE('',*,*,#503,.T.);
#645=ORIENTED_EDGE('',*,*,#502,.F.);
#646=ORIENTED_EDGE('',*,*,#504,.F.);
#647=ORIENTED_EDGE('',*,*,#505,.F.);
#648=ORIENTED_EDGE('',*,*,#479,.F.);
#649=ORIENTED_EDGE('',*,*,#506,.T.);
#650=ORIENTED_EDGE('',*,*,#507,.T.);
#651=ORIENTED_EDGE('',*,*,#480,.T.);
#652=ORIENTED_EDGE('',*,*,#505,.T.);
#653=ORIENTED_EDGE('',*,*,#507,.F.);
#654=ORIENTED_EDGE('',*,*,#508,.T.);
#655=ORIENTED_EDGE('',*,*,#496,.T.);
#656=ORIENTED_EDGE('',*,*,#509,.F.);
#657=ORIENTED_EDGE('',*,*,#510,.T.);
#658=ORIENTED_EDGE('',*,*,#481,.F.);
#659=ORIENTED_EDGE('',*,*,#511,.F.);
#660=ORIENTED_EDGE('',*,*,#512,.T.);
#661=ORIENTED_EDGE('',*,*,#487,.F.);
#662=ORIENTED_EDGE('',*,*,#512,.F.);
#663=ORIENTED_EDGE('',*,*,#491,.F.);
#664=ORIENTED_EDGE('',*,*,#513,.F.);
#665=ORIENTED_EDGE('',*,*,#503,.F.);
#666=ORIENTED_EDGE('',*,*,#477,.F.);
#667=ORIENTED_EDGE('',*,*,#490,.F.);
#668=ORIENTED_EDGE('',*,*,#497,.T.);
#669=ORIENTED_EDGE('',*,*,#508,.F.);
#670=ORIENTED_EDGE('',*,*,#506,.F.);
#671=ORIENTED_EDGE('',*,*,#504,.T.);
#672=ORIENTED_EDGE('',*,*,#501,.F.);
#673=ORIENTED_EDGE('',*,*,#513,.T.);
#674=ORIENTED_EDGE('',*,*,#511,.T.);
#675=ORIENTED_EDGE('',*,*,#514,.F.);
#676=ORIENTED_EDGE('',*,*,#515,.T.);
#677=ORIENTED_EDGE('',*,*,#488,.F.);
#678=ORIENTED_EDGE('',*,*,#515,.F.);
#679=ORIENTED_EDGE('',*,*,#458,.F.);
#680=ORIENTED_EDGE('',*,*,#464,.T.);
#681=ORIENTED_EDGE('',*,*,#489,.F.);
#682=ORIENTED_EDGE('',*,*,#455,.T.);
#683=ORIENTED_EDGE('',*,*,#451,.F.);
#684=ORIENTED_EDGE('',*,*,#516,.F.);
#685=ORIENTED_EDGE('',*,*,#493,.T.);
#686=ORIENTED_EDGE('',*,*,#514,.T.);
#687=ORIENTED_EDGE('',*,*,#454,.F.);
#688=ORIENTED_EDGE('',*,*,#485,.F.);
#689=ORIENTED_EDGE('',*,*,#517,.T.);
#690=ORIENTED_EDGE('',*,*,#518,.F.);
#691=ORIENTED_EDGE('',*,*,#494,.F.);
#692=ORIENTED_EDGE('',*,*,#516,.T.);
#693=ORIENTED_EDGE('',*,*,#519,.T.);
#694=ORIENTED_EDGE('',*,*,#520,.T.);
#695=ORIENTED_EDGE('',*,*,#469,.F.);
#696=ORIENTED_EDGE('',*,*,#521,.F.);
#697=ORIENTED_EDGE('',*,*,#522,.T.);
#698=ORIENTED_EDGE('',*,*,#523,.T.);
#699=ORIENTED_EDGE('',*,*,#471,.F.);
#700=ORIENTED_EDGE('',*,*,#524,.F.);
#701=ORIENTED_EDGE('',*,*,#525,.F.);
#702=ORIENTED_EDGE('',*,*,#526,.T.);
#703=ORIENTED_EDGE('',*,*,#473,.F.);
#704=ORIENTED_EDGE('',*,*,#527,.F.);
#705=ORIENTED_EDGE('',*,*,#528,.F.);
#706=ORIENTED_EDGE('',*,*,#529,.F.);
#707=ORIENTED_EDGE('',*,*,#529,.T.);
#708=ORIENTED_EDGE('',*,*,#530,.F.);
#709=ORIENTED_EDGE('',*,*,#527,.T.);
#710=ORIENTED_EDGE('',*,*,#472,.F.);
#711=ORIENTED_EDGE('',*,*,#523,.F.);
#712=ORIENTED_EDGE('',*,*,#531,.T.);
#713=ORIENTED_EDGE('',*,*,#532,.F.);
#714=ORIENTED_EDGE('',*,*,#533,.F.);
#715=ORIENTED_EDGE('',*,*,#524,.T.);
#716=ORIENTED_EDGE('',*,*,#470,.F.);
#717=ORIENTED_EDGE('',*,*,#520,.F.);
#718=ORIENTED_EDGE('',*,*,#534,.T.);
#719=ORIENTED_EDGE('',*,*,#535,.F.);
#720=ORIENTED_EDGE('',*,*,#536,.F.);
#721=ORIENTED_EDGE('',*,*,#536,.T.);
#722=ORIENTED_EDGE('',*,*,#537,.F.);
#723=ORIENTED_EDGE('',*,*,#538,.F.);
#724=ORIENTED_EDGE('',*,*,#521,.T.);
#725=ORIENTED_EDGE('',*,*,#468,.F.);
#726=ORIENTED_EDGE('',*,*,#539,.F.);
#727=ORIENTED_EDGE('',*,*,#540,.F.);
#728=ORIENTED_EDGE('',*,*,#539,.T.);
#729=ORIENTED_EDGE('',*,*,#467,.F.);
#730=ORIENTED_EDGE('',*,*,#541,.F.);
#731=ORIENTED_EDGE('',*,*,#542,.F.);
#732=ORIENTED_EDGE('',*,*,#541,.T.);
#733=ORIENTED_EDGE('',*,*,#466,.F.);
#734=ORIENTED_EDGE('',*,*,#500,.F.);
#735=ORIENTED_EDGE('',*,*,#543,.F.);
#736=ORIENTED_EDGE('',*,*,#498,.T.);
#737=ORIENTED_EDGE('',*,*,#474,.F.);
#738=ORIENTED_EDGE('',*,*,#526,.F.);
#739=ORIENTED_EDGE('',*,*,#538,.T.);
#740=ORIENTED_EDGE('',*,*,#544,.F.);
#741=ORIENTED_EDGE('',*,*,#534,.F.);
#742=ORIENTED_EDGE('',*,*,#545,.T.);
#743=ORIENTED_EDGE('',*,*,#533,.T.);
#744=ORIENTED_EDGE('',*,*,#546,.F.);
#745=ORIENTED_EDGE('',*,*,#531,.F.);
#746=ORIENTED_EDGE('',*,*,#547,.T.);
#747=ORIENTED_EDGE('',*,*,#542,.T.);
#748=ORIENTED_EDGE('',*,*,#499,.F.);
#749=ORIENTED_EDGE('',*,*,#543,.T.);
#750=ORIENTED_EDGE('',*,*,#525,.T.);
#751=ORIENTED_EDGE('',*,*,#530,.T.);
#752=ORIENTED_EDGE('',*,*,#444,.T.);
#753=ORIENTED_EDGE('',*,*,#548,.T.);
#754=ORIENTED_EDGE('',*,*,#528,.T.);
#755=ORIENTED_EDGE('',*,*,#546,.T.);
#756=ORIENTED_EDGE('',*,*,#532,.T.);
#757=ORIENTED_EDGE('',*,*,#544,.T.);
#758=ORIENTED_EDGE('',*,*,#537,.T.);
#759=ORIENTED_EDGE('',*,*,#448,.T.);
#760=ORIENTED_EDGE('',*,*,#549,.T.);
#761=ORIENTED_EDGE('',*,*,#535,.T.);
#762=ORIENTED_EDGE('',*,*,#540,.T.);
#763=ORIENTED_EDGE('',*,*,#510,.F.);
#764=ORIENTED_EDGE('',*,*,#550,.F.);
#765=ORIENTED_EDGE('',*,*,#551,.F.);
#766=ORIENTED_EDGE('',*,*,#482,.F.);
#767=ORIENTED_EDGE('',*,*,#551,.T.);
#768=ORIENTED_EDGE('',*,*,#552,.F.);
#769=ORIENTED_EDGE('',*,*,#553,.F.);
#770=ORIENTED_EDGE('',*,*,#483,.F.);
#771=ORIENTED_EDGE('',*,*,#553,.T.);
#772=ORIENTED_EDGE('',*,*,#554,.F.);
#773=ORIENTED_EDGE('',*,*,#517,.F.);
#774=ORIENTED_EDGE('',*,*,#484,.F.);
#775=ORIENTED_EDGE('',*,*,#509,.T.);
#776=ORIENTED_EDGE('',*,*,#495,.T.);
#777=ORIENTED_EDGE('',*,*,#518,.T.);
#778=ORIENTED_EDGE('',*,*,#554,.T.);
#779=ORIENTED_EDGE('',*,*,#552,.T.);
#780=ORIENTED_EDGE('',*,*,#550,.T.);
#781=ORIENTED_EDGE('',*,*,#555,.T.);
#782=ORIENTED_EDGE('',*,*,#556,.T.);
#783=ORIENTED_EDGE('',*,*,#557,.T.);
#784=ORIENTED_EDGE('',*,*,#558,.T.);
#785=ORIENTED_EDGE('',*,*,#555,.F.);
#786=ORIENTED_EDGE('',*,*,#559,.T.);
#787=ORIENTED_EDGE('',*,*,#560,.T.);
#788=ORIENTED_EDGE('',*,*,#559,.F.);
#789=ORIENTED_EDGE('',*,*,#547,.F.);
#790=ORIENTED_EDGE('',*,*,#522,.F.);
#791=ORIENTED_EDGE('',*,*,#560,.F.);
#792=ORIENTED_EDGE('',*,*,#558,.F.);
#793=ORIENTED_EDGE('',*,*,#561,.T.);
#794=ORIENTED_EDGE('',*,*,#562,.T.);
#795=ORIENTED_EDGE('',*,*,#561,.F.);
#796=ORIENTED_EDGE('',*,*,#447,.T.);
#797=ORIENTED_EDGE('',*,*,#563,.T.);
#798=ORIENTED_EDGE('',*,*,#449,.T.);
#799=ORIENTED_EDGE('',*,*,#549,.F.);
#800=ORIENTED_EDGE('',*,*,#450,.F.);
#801=ORIENTED_EDGE('',*,*,#563,.F.);
#802=ORIENTED_EDGE('',*,*,#562,.F.);
#803=ORIENTED_EDGE('',*,*,#556,.F.);
#804=ORIENTED_EDGE('',*,*,#564,.T.);
#805=ORIENTED_EDGE('',*,*,#565,.T.);
#806=ORIENTED_EDGE('',*,*,#564,.F.);
#807=ORIENTED_EDGE('',*,*,#545,.F.);
#808=ORIENTED_EDGE('',*,*,#519,.F.);
#809=ORIENTED_EDGE('',*,*,#565,.F.);
#810=ORIENTED_EDGE('',*,*,#557,.F.);
#811=ORIENTED_EDGE('',*,*,#566,.T.);
#812=ORIENTED_EDGE('',*,*,#567,.T.);
#813=ORIENTED_EDGE('',*,*,#566,.F.);
#814=ORIENTED_EDGE('',*,*,#443,.T.);
#815=ORIENTED_EDGE('',*,*,#568,.T.);
#816=ORIENTED_EDGE('',*,*,#445,.T.);
#817=ORIENTED_EDGE('',*,*,#548,.F.);
#818=ORIENTED_EDGE('',*,*,#446,.F.);
#819=ORIENTED_EDGE('',*,*,#568,.F.);
#820=ORIENTED_EDGE('',*,*,#567,.F.);
#821=CYLINDRICAL_SURFACE('',#912,2.375);
#822=CYLINDRICAL_SURFACE('',#915,2.375);
#823=CYLINDRICAL_SURFACE('',#918,2.);
#824=CYLINDRICAL_SURFACE('',#922,2.);
#825=CYLINDRICAL_SURFACE('',#937,2.);
#826=CYLINDRICAL_SURFACE('',#939,2.);
#827=CYLINDRICAL_SURFACE('',#942,2.);
#828=CYLINDRICAL_SURFACE('',#945,2.);
#829=CYLINDRICAL_SURFACE('',#948,1.5);
#830=CYLINDRICAL_SURFACE('',#952,1.5);
#831=CYLINDRICAL_SURFACE('',#956,2.375);
#832=CYLINDRICAL_SURFACE('',#958,2.375);
#833=CYLINDRICAL_SURFACE('',#967,2.375);
#834=CYLINDRICAL_SURFACE('',#970,2.375);
#835=CYLINDRICAL_SURFACE('',#976,3.575);
#836=CYLINDRICAL_SURFACE('',#979,3.575);
#837=CYLINDRICAL_SURFACE('',#986,1.1);
#838=CYLINDRICAL_SURFACE('',#989,1.1);
#839=CYLINDRICAL_SURFACE('',#991,2.375);
#840=CYLINDRICAL_SURFACE('',#994,1.1);
#841=CYLINDRICAL_SURFACE('',#997,1.1);
#842=CYLINDRICAL_SURFACE('',#999,2.375);
#843=ADVANCED_FACE('',(#51),#821,.T.);
#844=ADVANCED_FACE('',(#52),#822,.T.);
#845=ADVANCED_FACE('',(#53),#823,.F.);
#846=ADVANCED_FACE('',(#54),#27,.T.);
#847=ADVANCED_FACE('',(#55),#824,.T.);
#848=ADVANCED_FACE('',(#56),#28,.T.);
#849=ADVANCED_FACE('',(#57,#15,#16),#29,.T.);
#850=ADVANCED_FACE('',(#58),#825,.T.);
#851=ADVANCED_FACE('',(#59),#826,.T.);
#852=ADVANCED_FACE('',(#60),#30,.T.);
#853=ADVANCED_FACE('',(#61),#827,.T.);
#854=ADVANCED_FACE('',(#62),#31,.T.);
#855=ADVANCED_FACE('',(#63),#828,.F.);
#856=ADVANCED_FACE('',(#64),#32,.T.);
#857=ADVANCED_FACE('',(#65),#829,.F.);
#858=ADVANCED_FACE('',(#66),#33,.T.);
#859=ADVANCED_FACE('',(#67,#17),#34,.F.);
#860=ADVANCED_FACE('',(#68),#830,.F.);
#861=ADVANCED_FACE('',(#69,#18),#35,.F.);
#862=ADVANCED_FACE('',(#70),#36,.T.);
#863=ADVANCED_FACE('',(#71),#831,.F.);
#864=ADVANCED_FACE('',(#72),#832,.F.);
#865=ADVANCED_FACE('',(#73),#37,.T.);
#866=ADVANCED_FACE('',(#74),#38,.T.);
#867=ADVANCED_FACE('',(#75),#39,.T.);
#868=ADVANCED_FACE('',(#76),#40,.T.);
#869=ADVANCED_FACE('',(#77),#41,.T.);
#870=ADVANCED_FACE('',(#78),#42,.T.);
#871=ADVANCED_FACE('',(#79),#43,.T.);
#872=ADVANCED_FACE('',(#80),#833,.T.);
#873=ADVANCED_FACE('',(#81),#834,.T.);
#874=ADVANCED_FACE('',(#82),#44,.F.);
#875=ADVANCED_FACE('',(#83),#835,.T.);
#876=ADVANCED_FACE('',(#84),#45,.T.);
#877=ADVANCED_FACE('',(#85),#836,.T.);
#878=ADVANCED_FACE('',(#86,#19,#20,#21,#22),#46,.T.);
#879=ADVANCED_FACE('',(#87),#837,.F.);
#880=ADVANCED_FACE('',(#88,#23),#47,.F.);
#881=ADVANCED_FACE('',(#89),#838,.F.);
#882=ADVANCED_FACE('',(#90),#839,.T.);
#883=ADVANCED_FACE('',(#91,#24),#48,.F.);
#884=ADVANCED_FACE('',(#92),#840,.F.);
#885=ADVANCED_FACE('',(#93,#25),#49,.F.);
#886=ADVANCED_FACE('',(#94),#841,.F.);
#887=ADVANCED_FACE('',(#95),#842,.T.);
#888=ADVANCED_FACE('',(#96,#26),#50,.F.);
#889=CLOSED_SHELL('',(#843,#844,#845,#846,#847,#848,#849,#850,#851,#852,
#853,#854,#855,#856,#857,#858,#859,#860,#861,#862,#863,#864,#865,#866,#867,
#868,#869,#870,#871,#872,#873,#874,#875,#876,#877,#878,#879,#880,#881,#882,
#883,#884,#885,#886,#887,#888));
#890=DERIVED_UNIT_ELEMENT(#893,1.);
#891=DERIVED_UNIT_ELEMENT(#1524,-3.);
#892=DIMENSIONAL_EXPONENTS(0.,1.,0.,0.,0.,0.,0.);
#893=(
CONVERSION_BASED_UNIT('gram',#895)
MASS_UNIT()
NAMED_UNIT(#892)
);
#894=(
MASS_UNIT()
NAMED_UNIT(*)
SI_UNIT(.KILO.,.GRAM.)
);
#895=MASS_MEASURE_WITH_UNIT(MASS_MEASURE(0.001),#894);
#896=DERIVED_UNIT((#890,#891));
#897=MEASURE_REPRESENTATION_ITEM('density measure',
POSITIVE_RATIO_MEASURE(1.),#896);
#898=PROPERTY_DEFINITION_REPRESENTATION(#903,#900);
#899=PROPERTY_DEFINITION_REPRESENTATION(#904,#901);
#900=REPRESENTATION('material name',(#902),#1521);
#901=REPRESENTATION('density',(#897),#1521);
#902=DESCRIPTIVE_REPRESENTATION_ITEM('Generic','Generic');
#903=PROPERTY_DEFINITION('material property','material name',#1531);
#904=PROPERTY_DEFINITION('material property','density of part',#1531);
#905=DATE_TIME_ROLE('creation_date');
#906=APPLIED_DATE_AND_TIME_ASSIGNMENT(#907,#905,(#1531));
#907=DATE_AND_TIME(#908,#909);
#908=CALENDAR_DATE(2026,18,6);
#909=LOCAL_TIME(0,0,0.,#910);
#910=COORDINATED_UNIVERSAL_TIME_OFFSET(0,0,.BEHIND.);
#911=AXIS2_PLACEMENT_3D('',#1266,#1002,#1003);
#912=AXIS2_PLACEMENT_3D('',#1267,#1004,#1005);
#913=AXIS2_PLACEMENT_3D('',#1272,#1007,#1008);
#914=AXIS2_PLACEMENT_3D('',#1275,#1010,#1011);
#915=AXIS2_PLACEMENT_3D('',#1276,#1012,#1013);
#916=AXIS2_PLACEMENT_3D('',#1281,#1015,#1016);
#917=AXIS2_PLACEMENT_3D('',#1284,#1018,#1019);
#918=AXIS2_PLACEMENT_3D('',#1285,#1020,#1021);
#919=AXIS2_PLACEMENT_3D('',#1288,#1022,#1023);
#920=AXIS2_PLACEMENT_3D('',#1292,#1025,#1026);
#921=AXIS2_PLACEMENT_3D('',#1294,#1028,#1029);
#922=AXIS2_PLACEMENT_3D('',#1300,#1033,#1034);
#923=AXIS2_PLACEMENT_3D('',#1303,#1035,#1036);
#924=AXIS2_PLACEMENT_3D('',#1307,#1038,#1039);
#925=AXIS2_PLACEMENT_3D('',#1309,#1041,#1042);
#926=AXIS2_PLACEMENT_3D('',#1315,#1046,#1047);
#927=AXIS2_PLACEMENT_3D('',#1325,#1052,#1053);
#928=AXIS2_PLACEMENT_3D('',#1329,#1055,#1056);
#929=AXIS2_PLACEMENT_3D('',#1339,#1061,#1062);
#930=AXIS2_PLACEMENT_3D('',#1343,#1064,#1065);
#931=AXIS2_PLACEMENT_3D('',#1347,#1067,#1068);
#932=AXIS2_PLACEMENT_3D('',#1351,#1070,#1071);
#933=AXIS2_PLACEMENT_3D('',#1355,#1073,#1074);
#934=AXIS2_PLACEMENT_3D('',#1357,#1076,#1077);
#935=AXIS2_PLACEMENT_3D('',#1359,#1078,#1079);
#936=AXIS2_PLACEMENT_3D('',#1361,#1080,#1081);
#937=AXIS2_PLACEMENT_3D('',#1362,#1082,#1083);
#938=AXIS2_PLACEMENT_3D('',#1363,#1084,#1085);
#939=AXIS2_PLACEMENT_3D('',#1364,#1086,#1087);
#940=AXIS2_PLACEMENT_3D('',#1367,#1088,#1089);
#941=AXIS2_PLACEMENT_3D('',#1370,#1092,#1093);
#942=AXIS2_PLACEMENT_3D('',#1385,#1102,#1103);
#943=AXIS2_PLACEMENT_3D('',#1388,#1104,#1105);
#944=AXIS2_PLACEMENT_3D('',#1391,#1108,#1109);
#945=AXIS2_PLACEMENT_3D('',#1395,#1112,#1113);
#946=AXIS2_PLACEMENT_3D('',#1397,#1114,#1115);
#947=AXIS2_PLACEMENT_3D('',#1399,#1117,#1118);
#948=AXIS2_PLACEMENT_3D('',#1404,#1122,#1123);
#949=AXIS2_PLACEMENT_3D('',#1406,#1124,#1125);
#950=AXIS2_PLACEMENT_3D('',#1408,#1127,#1128);
#951=AXIS2_PLACEMENT_3D('',#1410,#1130,#1131);
#952=AXIS2_PLACEMENT_3D('',#1411,#1132,#1133);
#953=AXIS2_PLACEMENT_3D('',#1413,#1134,#1135);
#954=AXIS2_PLACEMENT_3D('',#1415,#1137,#1138);
#955=AXIS2_PLACEMENT_3D('',#1417,#1140,#1141);
#956=AXIS2_PLACEMENT_3D('',#1421,#1144,#1145);
#957=AXIS2_PLACEMENT_3D('',#1424,#1146,#1147);
#958=AXIS2_PLACEMENT_3D('',#1427,#1150,#1151);
#959=AXIS2_PLACEMENT_3D('',#1430,#1152,#1153);
#960=AXIS2_PLACEMENT_3D('',#1433,#1156,#1157);
#961=AXIS2_PLACEMENT_3D('',#1439,#1161,#1162);
#962=AXIS2_PLACEMENT_3D('',#1445,#1167,#1168);
#963=AXIS2_PLACEMENT_3D('',#1451,#1172,#1173);
#964=AXIS2_PLACEMENT_3D('',#1459,#1179,#1180);
#965=AXIS2_PLACEMENT_3D('',#1463,#1183,#1184);
#966=AXIS2_PLACEMENT_3D('',#1465,#1186,#1187);
#967=AXIS2_PLACEMENT_3D('',#1467,#1189,#1190);
#968=AXIS2_PLACEMENT_3D('',#1468,#1191,#1192);
#969=AXIS2_PLACEMENT_3D('',#1469,#1193,#1194);
#970=AXIS2_PLACEMENT_3D('',#1470,#1195,#1196);
#971=AXIS2_PLACEMENT_3D('',#1471,#1197,#1198);
#972=AXIS2_PLACEMENT_3D('',#1472,#1199,#1200);
#973=AXIS2_PLACEMENT_3D('',#1473,#1201,#1202);
#974=AXIS2_PLACEMENT_3D('',#1474,#1203,#1204);
#975=AXIS2_PLACEMENT_3D('',#1475,#1205,#1206);
#976=AXIS2_PLACEMENT_3D('',#1476,#1207,#1208);
#977=AXIS2_PLACEMENT_3D('',#1478,#1209,#1210);
#978=AXIS2_PLACEMENT_3D('',#1480,#1212,#1213);
#979=AXIS2_PLACEMENT_3D('',#1484,#1216,#1217);
#980=AXIS2_PLACEMENT_3D('',#1485,#1218,#1219);
#981=AXIS2_PLACEMENT_3D('',#1486,#1220,#1221);
#982=AXIS2_PLACEMENT_3D('',#1488,#1222,#1223);
#983=AXIS2_PLACEMENT_3D('',#1490,#1224,#1225);
#984=AXIS2_PLACEMENT_3D('',#1492,#1226,#1227);
#985=AXIS2_PLACEMENT_3D('',#1494,#1228,#1229);
#986=AXIS2_PLACEMENT_3D('',#1495,#1230,#1231);
#987=AXIS2_PLACEMENT_3D('',#1498,#1233,#1234);
#988=AXIS2_PLACEMENT_3D('',#1499,#1235,#1236);
#989=AXIS2_PLACEMENT_3D('',#1500,#1237,#1238);
#990=AXIS2_PLACEMENT_3D('',#1503,#1240,#1241);
#991=AXIS2_PLACEMENT_3D('',#1504,#1242,#1243);
#992=AXIS2_PLACEMENT_3D('',#1505,#1244,#1245);
#993=AXIS2_PLACEMENT_3D('',#1506,#1246,#1247);
#994=AXIS2_PLACEMENT_3D('',#1507,#1248,#1249);
#995=AXIS2_PLACEMENT_3D('',#1510,#1251,#1252);
#996=AXIS2_PLACEMENT_3D('',#1511,#1253,#1254);
#997=AXIS2_PLACEMENT_3D('',#1512,#1255,#1256);
#998=AXIS2_PLACEMENT_3D('',#1515,#1258,#1259);
#999=AXIS2_PLACEMENT_3D('',#1516,#1260,#1261);
#1000=AXIS2_PLACEMENT_3D('',#1517,#1262,#1263);
#1001=AXIS2_PLACEMENT_3D('',#1518,#1264,#1265);
#1002=DIRECTION('axis',(0.,0.,1.));
#1003=DIRECTION('refdir',(1.,0.,0.));
#1004=DIRECTION('center_axis',(0.,0.,1.));
#1005=DIRECTION('ref_axis',(-0.842105263157894,-0.5393131982084,0.));
#1006=DIRECTION('',(0.,0.,-1.));
#1007=DIRECTION('center_axis',(0.,0.,1.));
#1008=DIRECTION('ref_axis',(-0.842105263157894,-0.5393131982084,0.));
#1009=DIRECTION('',(0.,0.,1.));
#1010=DIRECTION('center_axis',(0.,0.,1.));
#1011=DIRECTION('ref_axis',(-0.842105263157894,-0.5393131982084,0.));
#1012=DIRECTION('center_axis',(0.,0.,1.));
#1013=DIRECTION('ref_axis',(0.842105263157893,0.539313198208403,0.));
#1014=DIRECTION('',(0.,0.,-1.));
#1015=DIRECTION('center_axis',(0.,0.,1.));
#1016=DIRECTION('ref_axis',(0.842105263157893,0.539313198208403,0.));
#1017=DIRECTION('',(0.,0.,1.));
#1018=DIRECTION('center_axis',(0.,0.,1.));
#1019=DIRECTION('ref_axis',(0.842105263157893,0.539313198208403,0.));
#1020=DIRECTION('center_axis',(0.,0.,-1.));
#1021=DIRECTION('ref_axis',(-0.707106781186548,-0.707106781186547,0.));
#1022=DIRECTION('center_axis',(0.,0.,1.));
#1023=DIRECTION('ref_axis',(-0.707106781186548,-0.707106781186547,0.));
#1024=DIRECTION('',(0.,0.,-1.));
#1025=DIRECTION('center_axis',(0.,0.,-1.));
#1026=DIRECTION('ref_axis',(-0.707106781186548,-0.707106781186547,0.));
#1027=DIRECTION('',(0.,0.,1.));
#1028=DIRECTION('center_axis',(0.,1.,0.));
#1029=DIRECTION('ref_axis',(-1.,0.,0.));
#1030=DIRECTION('',(-1.,0.,0.));
#1031=DIRECTION('',(0.,0.,1.));
#1032=DIRECTION('',(1.,0.,0.));
#1033=DIRECTION('center_axis',(0.,0.,1.));
#1034=DIRECTION('ref_axis',(0.707106781186547,-0.707106781186548,0.));
#1035=DIRECTION('center_axis',(0.,0.,-1.));
#1036=DIRECTION('ref_axis',(0.707106781186547,-0.707106781186548,0.));
#1037=DIRECTION('',(0.,0.,-1.));
#1038=DIRECTION('center_axis',(0.,0.,1.));
#1039=DIRECTION('ref_axis',(0.707106781186547,-0.707106781186548,0.));
#1040=DIRECTION('',(0.,0.,1.));
#1041=DIRECTION('center_axis',(1.,0.,0.));
#1042=DIRECTION('ref_axis',(0.,1.,0.));
#1043=DIRECTION('',(0.,-1.,0.));
#1044=DIRECTION('',(0.,0.,-1.));
#1045=DIRECTION('',(0.,1.,0.));
#1046=DIRECTION('center_axis',(0.,0.,-1.));
#1047=DIRECTION('ref_axis',(-1.,0.,0.));
#1048=DIRECTION('',(-1.,0.,0.));
#1049=DIRECTION('',(0.,1.,0.));
#1050=DIRECTION('',(1.,0.,0.));
#1051=DIRECTION('',(0.,1.,0.));
#1052=DIRECTION('center_axis',(0.,0.,1.));
#1053=DIRECTION('ref_axis',(1.,0.,0.));
#1054=DIRECTION('',(-1.,0.,0.));
#1055=DIRECTION('center_axis',(0.,0.,1.));
#1056=DIRECTION('ref_axis',(1.,0.,0.));
#1057=DIRECTION('',(0.,-1.,0.));
#1058=DIRECTION('',(1.,0.,0.));
#1059=DIRECTION('',(0.,-1.,0.));
#1060=DIRECTION('',(-1.,0.,0.));
#1061=DIRECTION('center_axis',(0.,0.,1.));
#1062=DIRECTION('ref_axis',(-0.707106781186548,-0.707106781186547,0.));
#1063=DIRECTION('',(0.,1.,0.));
#1064=DIRECTION('center_axis',(0.,0.,1.));
#1065=DIRECTION('ref_axis',(-0.707106781186548,0.707106781186548,0.));
#1066=DIRECTION('',(1.,0.,0.));
#1067=DIRECTION('center_axis',(0.,0.,-1.));
#1068=DIRECTION('ref_axis',(0.707106781186548,-0.707106781186547,0.));
#1069=DIRECTION('',(-3.59854664316593E-13,1.,0.));
#1070=DIRECTION('center_axis',(0.,0.,-1.));
#1071=DIRECTION('ref_axis',(-1.,0.,0.));
#1072=DIRECTION('',(1.,0.,0.));
#1073=DIRECTION('center_axis',(0.,0.,-1.));
#1074=DIRECTION('ref_axis',(0.,1.,0.));
#1075=DIRECTION('',(8.39233792416877E-13,-1.,0.));
#1076=DIRECTION('center_axis',(0.,0.,1.));
#1077=DIRECTION('ref_axis',(0.707106781186548,0.707106781186547,0.));
#1078=DIRECTION('center_axis',(0.,0.,1.));
#1079=DIRECTION('ref_axis',(1.,0.,0.));
#1080=DIRECTION('center_axis',(0.,0.,1.));
#1081=DIRECTION('ref_axis',(1.,0.,0.));
#1082=DIRECTION('center_axis',(0.,0.,1.));
#1083=DIRECTION('ref_axis',(0.707106781186548,0.707106781186547,0.));
#1084=DIRECTION('center_axis',(0.,0.,-1.));
#1085=DIRECTION('ref_axis',(0.707106781186548,0.707106781186547,0.));
#1086=DIRECTION('center_axis',(0.,0.,1.));
#1087=DIRECTION('ref_axis',(-0.707106781186548,-0.707106781186547,0.));
#1088=DIRECTION('center_axis',(0.,0.,-1.));
#1089=DIRECTION('ref_axis',(-0.707106781186548,-0.707106781186547,0.));
#1090=DIRECTION('',(0.,0.,-1.));
#1091=DIRECTION('',(0.,0.,1.));
#1092=DIRECTION('center_axis',(0.,-1.,0.));
#1093=DIRECTION('ref_axis',(1.,0.,0.));
#1094=DIRECTION('',(1.,0.,0.));
#1095=DIRECTION('',(0.,0.,1.));
#1096=DIRECTION('',(1.,0.,0.));
#1097=DIRECTION('',(0.,0.,1.));
#1098=DIRECTION('',(1.,0.,0.));
#1099=DIRECTION('',(0.,0.,-1.));
#1100=DIRECTION('',(1.,0.,0.));
#1101=DIRECTION('',(0.,0.,-1.));
#1102=DIRECTION('center_axis',(0.,0.,1.));
#1103=DIRECTION('ref_axis',(-0.707106781186548,0.707106781186548,0.));
#1104=DIRECTION('center_axis',(0.,0.,-1.));
#1105=DIRECTION('ref_axis',(-0.707106781186548,0.707106781186548,0.));
#1106=DIRECTION('',(0.,0.,-1.));
#1107=DIRECTION('',(0.,0.,1.));
#1108=DIRECTION('center_axis',(0.,1.,0.));
#1109=DIRECTION('ref_axis',(-1.,0.,0.));
#1110=DIRECTION('',(-1.,0.,0.));
#1111=DIRECTION('',(0.,0.,1.));
#1112=DIRECTION('center_axis',(0.,0.,1.));
#1113=DIRECTION('ref_axis',(0.707106781186548,-0.707106781186547,0.));
#1114=DIRECTION('center_axis',(0.,0.,1.));
#1115=DIRECTION('ref_axis',(0.707106781186548,-0.707106781186547,0.));
#1116=DIRECTION('',(0.,0.,-1.));
#1117=DIRECTION('center_axis',(-1.,0.,0.));
#1118=DIRECTION('ref_axis',(0.,-1.,0.));
#1119=DIRECTION('',(0.,-1.,0.));
#1120=DIRECTION('',(0.,-1.,0.));
#1121=DIRECTION('',(0.,0.,-1.));
#1122=DIRECTION('center_axis',(0.,0.,1.));
#1123=DIRECTION('ref_axis',(1.,0.,0.));
#1124=DIRECTION('center_axis',(0.,0.,-1.));
#1125=DIRECTION('ref_axis',(1.,0.,0.));
#1126=DIRECTION('',(0.,0.,-1.));
#1127=DIRECTION('center_axis',(-1.,0.,0.));
#1128=DIRECTION('ref_axis',(0.,-1.,0.));
#1129=DIRECTION('',(0.,-1.,0.));
#1130=DIRECTION('center_axis',(0.,0.,-1.));
#1131=DIRECTION('ref_axis',(-1.,0.,0.));
#1132=DIRECTION('center_axis',(0.,0.,1.));
#1133=DIRECTION('ref_axis',(1.,0.,0.));
#1134=DIRECTION('center_axis',(0.,0.,-1.));
#1135=DIRECTION('ref_axis',(1.,0.,0.));
#1136=DIRECTION('',(0.,0.,-1.));
#1137=DIRECTION('center_axis',(0.,0.,-1.));
#1138=DIRECTION('ref_axis',(-1.,0.,0.));
#1139=DIRECTION('',(0.,1.,0.));
#1140=DIRECTION('center_axis',(1.,0.,0.));
#1141=DIRECTION('ref_axis',(0.,1.,0.));
#1142=DIRECTION('',(0.,0.,1.));
#1143=DIRECTION('',(0.,1.,0.));
#1144=DIRECTION('center_axis',(0.,0.,-1.));
#1145=DIRECTION('ref_axis',(1.,0.,0.));
#1146=DIRECTION('center_axis',(0.,0.,1.));
#1147=DIRECTION('ref_axis',(-0.539313198208401,0.842105263157894,0.));
#1148=DIRECTION('',(0.,0.,-1.));
#1149=DIRECTION('',(0.,0.,-1.));
#1150=DIRECTION('center_axis',(0.,0.,-1.));
#1151=DIRECTION('ref_axis',(1.,0.,0.));
#1152=DIRECTION('center_axis',(0.,0.,1.));
#1153=DIRECTION('ref_axis',(1.,0.,0.));
#1154=DIRECTION('',(0.,0.,-1.));
#1155=DIRECTION('',(0.,0.,-1.));
#1156=DIRECTION('center_axis',(0.,1.,0.));
#1157=DIRECTION('ref_axis',(1.,0.,0.));
#1158=DIRECTION('',(-1.,0.,0.));
#1159=DIRECTION('',(0.,0.,-1.));
#1160=DIRECTION('',(0.,0.,-1.));
#1161=DIRECTION('center_axis',(1.,0.,0.));
#1162=DIRECTION('ref_axis',(0.,-1.,0.));
#1163=DIRECTION('',(0.,1.,0.));
#1164=DIRECTION('',(0.,0.,1.));
#1165=DIRECTION('',(0.,1.,0.));
#1166=DIRECTION('',(0.,0.,1.));
#1167=DIRECTION('center_axis',(0.,-1.,0.));
#1168=DIRECTION('ref_axis',(-1.,0.,0.));
#1169=DIRECTION('',(1.,0.,0.));
#1170=DIRECTION('',(0.,0.,1.));
#1171=DIRECTION('',(0.,0.,1.));
#1172=DIRECTION('center_axis',(-1.,0.,0.));
#1173=DIRECTION('ref_axis',(0.,1.,0.));
#1174=DIRECTION('',(0.,-1.,0.));
#1175=DIRECTION('',(0.,0.,1.));
#1176=DIRECTION('',(0.,-1.,0.));
#1177=DIRECTION('',(0.,0.,1.));
#1178=DIRECTION('',(0.,0.,-1.));
#1179=DIRECTION('center_axis',(0.,1.,0.));
#1180=DIRECTION('ref_axis',(1.,0.,0.));
#1181=DIRECTION('',(-1.,0.,0.));
#1182=DIRECTION('',(0.,0.,-1.));
#1183=DIRECTION('center_axis',(-1.,0.,0.));
#1184=DIRECTION('ref_axis',(0.,1.,0.));
#1185=DIRECTION('',(0.,-1.,0.));
#1186=DIRECTION('center_axis',(1.,0.,0.));
#1187=DIRECTION('ref_axis',(0.,-1.,0.));
#1188=DIRECTION('',(0.,1.,0.));
#1189=DIRECTION('center_axis',(0.,0.,1.));
#1190=DIRECTION('ref_axis',(-0.707106781186547,-0.707106781186548,0.));
#1191=DIRECTION('center_axis',(0.,0.,1.));
#1192=DIRECTION('ref_axis',(-0.539313198208401,0.842105263157894,0.));
#1193=DIRECTION('center_axis',(0.,0.,1.));
#1194=DIRECTION('ref_axis',(-0.539313198208401,0.842105263157894,0.));
#1195=DIRECTION('center_axis',(0.,0.,1.));
#1196=DIRECTION('ref_axis',(1.,0.,0.));
#1197=DIRECTION('center_axis',(0.,0.,1.));
#1198=DIRECTION('ref_axis',(1.,0.,0.));
#1199=DIRECTION('center_axis',(0.,0.,1.));
#1200=DIRECTION('ref_axis',(1.,0.,0.));
#1201=DIRECTION('center_axis',(0.,0.,1.));
#1202=DIRECTION('ref_axis',(1.,0.,0.));
#1203=DIRECTION('center_axis',(0.,0.,1.));
#1204=DIRECTION('ref_axis',(-0.842105263157894,-0.5393131982084,0.));
#1205=DIRECTION('center_axis',(0.,0.,1.));
#1206=DIRECTION('ref_axis',(0.842105263157893,0.539313198208403,0.));
#1207=DIRECTION('center_axis',(0.,0.,1.));
#1208=DIRECTION('ref_axis',(1.,0.,0.));
#1209=DIRECTION('center_axis',(0.,0.,1.));
#1210=DIRECTION('ref_axis',(1.,0.,0.));
#1211=DIRECTION('',(0.,0.,1.));
#1212=DIRECTION('center_axis',(0.,1.,0.));
#1213=DIRECTION('ref_axis',(-1.,0.,0.));
#1214=DIRECTION('',(-1.,0.,0.));
#1215=DIRECTION('',(0.,0.,1.));
#1216=DIRECTION('center_axis',(0.,0.,1.));
#1217=DIRECTION('ref_axis',(1.,0.,0.));
#1218=DIRECTION('center_axis',(0.,0.,1.));
#1219=DIRECTION('ref_axis',(1.,0.,0.));
#1220=DIRECTION('center_axis',(0.,0.,1.));
#1221=DIRECTION('ref_axis',(1.,0.,0.));
#1222=DIRECTION('center_axis',(0.,0.,-1.));
#1223=DIRECTION('ref_axis',(-1.,0.,0.));
#1224=DIRECTION('center_axis',(0.,0.,-1.));
#1225=DIRECTION('ref_axis',(-1.,0.,0.));
#1226=DIRECTION('center_axis',(0.,0.,-1.));
#1227=DIRECTION('ref_axis',(-1.,0.,0.));
#1228=DIRECTION('center_axis',(0.,0.,-1.));
#1229=DIRECTION('ref_axis',(-1.,0.,0.));
#1230=DIRECTION('center_axis',(0.,0.,1.));
#1231=DIRECTION('ref_axis',(-1.,0.,0.));
#1232=DIRECTION('',(0.,0.,-1.));
#1233=DIRECTION('center_axis',(0.,0.,-1.));
#1234=DIRECTION('ref_axis',(-1.,0.,0.));
#1235=DIRECTION('center_axis',(0.,0.,1.));
#1236=DIRECTION('ref_axis',(1.,0.,0.));
#1237=DIRECTION('center_axis',(0.,0.,1.));
#1238=DIRECTION('ref_axis',(-1.,0.,0.));
#1239=DIRECTION('',(0.,0.,-1.));
#1240=DIRECTION('center_axis',(0.,0.,-1.));
#1241=DIRECTION('ref_axis',(-1.,0.,0.));
#1242=DIRECTION('center_axis',(0.,0.,1.));
#1243=DIRECTION('ref_axis',(0.842105263157893,0.539313198208403,0.));
#1244=DIRECTION('center_axis',(0.,0.,1.));
#1245=DIRECTION('ref_axis',(0.842105263157893,0.539313198208403,0.));
#1246=DIRECTION('center_axis',(0.,0.,1.));
#1247=DIRECTION('ref_axis',(1.,0.,0.));
#1248=DIRECTION('center_axis',(0.,0.,1.));
#1249=DIRECTION('ref_axis',(-1.,0.,0.));
#1250=DIRECTION('',(0.,0.,-1.));
#1251=DIRECTION('center_axis',(0.,0.,-1.));
#1252=DIRECTION('ref_axis',(-1.,0.,0.));
#1253=DIRECTION('center_axis',(0.,0.,1.));
#1254=DIRECTION('ref_axis',(1.,0.,0.));
#1255=DIRECTION('center_axis',(0.,0.,1.));
#1256=DIRECTION('ref_axis',(-1.,0.,0.));
#1257=DIRECTION('',(0.,0.,-1.));
#1258=DIRECTION('center_axis',(0.,0.,-1.));
#1259=DIRECTION('ref_axis',(-1.,0.,0.));
#1260=DIRECTION('center_axis',(0.,0.,1.));
#1261=DIRECTION('ref_axis',(-0.842105263157894,-0.5393131982084,0.));
#1262=DIRECTION('center_axis',(0.,0.,1.));
#1263=DIRECTION('ref_axis',(-0.842105263157894,-0.5393131982084,0.));
#1264=DIRECTION('center_axis',(0.,0.,1.));
#1265=DIRECTION('ref_axis',(1.,0.,0.));
#1266=CARTESIAN_POINT('',(0.,0.,0.));
#1267=CARTESIAN_POINT('Origin',(-10.4999999999989,-2.56899999999888,0.));
#1268=CARTESIAN_POINT('',(-8.49999999999889,-1.28813115425393,3.));
#1269=CARTESIAN_POINT('',(-8.49999999999889,-1.28813115425393,0.));
#1270=CARTESIAN_POINT('',(-8.49999999999889,-1.28813115425393,0.));
#1271=CARTESIAN_POINT('',(-12.8749999999989,-2.56899999999888,3.));
#1272=CARTESIAN_POINT('Origin',(-10.4999999999989,-2.56899999999888,3.));
#1273=CARTESIAN_POINT('',(-12.8749999999989,-2.56899999999888,0.));
#1274=CARTESIAN_POINT('',(-12.8749999999989,-2.56899999999888,0.));
#1275=CARTESIAN_POINT('Origin',(-10.4999999999989,-2.56899999999888,0.));
#1276=CARTESIAN_POINT('Origin',(10.5000000000011,-2.56899999999888,0.));
#1277=CARTESIAN_POINT('',(8.50000000000112,-3.84986884574384,3.));
#1278=CARTESIAN_POINT('',(8.50000000000112,-3.84986884574384,0.));
#1279=CARTESIAN_POINT('',(8.50000000000112,-3.84986884574384,0.));
#1280=CARTESIAN_POINT('',(12.8750000000011,-2.56899999999888,3.));
#1281=CARTESIAN_POINT('Origin',(10.5000000000011,-2.56899999999888,3.));
#1282=CARTESIAN_POINT('',(12.8750000000011,-2.56899999999888,0.));
#1283=CARTESIAN_POINT('',(12.8750000000011,-2.56899999999888,0.));
#1284=CARTESIAN_POINT('Origin',(10.5000000000011,-2.56899999999888,0.));
#1285=CARTESIAN_POINT('Origin',(16.0750000000215,-7.33100000000734,-1.));
#1286=CARTESIAN_POINT('',(14.0750000000215,-7.33100000000734,0.));
#1287=CARTESIAN_POINT('',(16.0750000000215,-9.33100000000734,0.));
#1288=CARTESIAN_POINT('Origin',(16.0750000000215,-7.33100000000734,0.));
#1289=CARTESIAN_POINT('',(16.0750000000215,-9.33100000000734,-5.));
#1290=CARTESIAN_POINT('',(16.0750000000215,-9.33100000000734,-1.));
#1291=CARTESIAN_POINT('',(14.0750000000156,-7.33100000000734,-5.));
#1292=CARTESIAN_POINT('Origin',(16.0750000000215,-7.33100000000734,-5.));
#1293=CARTESIAN_POINT('',(14.0750000000215,-7.33100000000734,-1.));
#1294=CARTESIAN_POINT('Origin',(19.0750000000215,-9.33100000000734,-5.));
#1295=CARTESIAN_POINT('',(17.0750000000215,-9.33100000000734,0.));
#1296=CARTESIAN_POINT('',(14.0750000000215,-9.33100000000734,0.));
#1297=CARTESIAN_POINT('',(17.0750000000215,-9.33100000000734,-5.));
#1298=CARTESIAN_POINT('',(17.0750000000215,-9.33100000000734,-5.));
#1299=CARTESIAN_POINT('',(14.0750000000215,-9.33100000000734,-5.));
#1300=CARTESIAN_POINT('Origin',(17.0750000000215,-12.3310000000073,-1.));
#1301=CARTESIAN_POINT('',(19.0750000000215,-12.3310000000073,0.));
#1302=CARTESIAN_POINT('',(17.0750000000215,-14.3310000000073,0.));
#1303=CARTESIAN_POINT('Origin',(17.0750000000215,-12.3310000000073,0.));
#1304=CARTESIAN_POINT('',(17.0750000000215,-14.3310000000073,-5.));
#1305=CARTESIAN_POINT('',(17.0750000000215,-14.3310000000073,-1.));
#1306=CARTESIAN_POINT('',(19.0750000000215,-12.3310000000073,-5.));
#1307=CARTESIAN_POINT('Origin',(17.0750000000215,-12.3310000000073,-5.));
#1308=CARTESIAN_POINT('',(19.0750000000215,-12.3310000000073,-1.));
#1309=CARTESIAN_POINT('Origin',(19.0750000000215,-14.3310000000073,-5.));
#1310=CARTESIAN_POINT('',(19.0750000000215,-11.3310000000073,-5.));
#1311=CARTESIAN_POINT('',(19.0750000000215,-9.33100000000734,-5.));
#1312=CARTESIAN_POINT('',(19.0750000000215,-11.3310000000073,0.));
#1313=CARTESIAN_POINT('',(19.0750000000215,-11.3310000000073,-5.));
#1314=CARTESIAN_POINT('',(19.0750000000215,-9.33100000000734,0.));
#1315=CARTESIAN_POINT('Origin',(1.12954090525363E-11,-0.412500000003106,
-5.));
#1316=CARTESIAN_POINT('',(7.87500000000112,-14.3310000000073,-5.));
#1317=CARTESIAN_POINT('',(19.0750000000215,-14.3310000000073,-5.));
#1318=CARTESIAN_POINT('',(7.87500000000112,-13.3310000000073,-5.));
#1319=CARTESIAN_POINT('',(7.87500000000112,-14.3310000000073,-5.));
#1320=CARTESIAN_POINT('',(12.8750000000011,-13.3310000000073,-5.));
#1321=CARTESIAN_POINT('',(7.87500000000112,-13.3310000000073,-5.));
#1322=CARTESIAN_POINT('',(12.8750000000011,9.93100000000112,-5.));
#1323=CARTESIAN_POINT('',(12.8750000000011,-14.3310000000073,-5.));
#1324=CARTESIAN_POINT('',(10.5000000000011,12.3060000000011,-5.));
#1325=CARTESIAN_POINT('Origin',(10.5000000000011,9.93100000000112,-5.));
#1326=CARTESIAN_POINT('',(-10.4999999999989,12.3060000000011,-5.));
#1327=CARTESIAN_POINT('',(10.5000000000011,12.3060000000011,-5.));
#1328=CARTESIAN_POINT('',(-12.8749999999989,9.93100000000112,-5.));
#1329=CARTESIAN_POINT('Origin',(-10.4999999999989,9.93100000000112,-5.));
#1330=CARTESIAN_POINT('',(-12.8749999999989,-13.3310000000073,-5.));
#1331=CARTESIAN_POINT('',(-12.8749999999989,9.93100000000112,-5.));
#1332=CARTESIAN_POINT('',(-7.8749999999989,-13.3310000000073,-5.));
#1333=CARTESIAN_POINT('',(-12.8749999999989,-13.3310000000073,-5.));
#1334=CARTESIAN_POINT('',(-7.8749999999989,-14.3310000000073,-5.));
#1335=CARTESIAN_POINT('',(-7.8749999999989,-13.3310000000073,-5.));
#1336=CARTESIAN_POINT('',(-17.0749999999902,-14.3310000000073,-5.));
#1337=CARTESIAN_POINT('',(14.0750000000215,-14.3310000000073,-5.));
#1338=CARTESIAN_POINT('',(-19.0749999999902,-12.3310000000073,-5.));
#1339=CARTESIAN_POINT('Origin',(-17.0749999999902,-12.3310000000073,-5.));
#1340=CARTESIAN_POINT('',(-19.0749999999902,-11.3310000000073,-5.));
#1341=CARTESIAN_POINT('',(-19.0749999999902,-14.3310000000073,-5.));
#1342=CARTESIAN_POINT('',(-17.0749999999902,-9.33100000000734,-5.));
#1343=CARTESIAN_POINT('Origin',(-17.0749999999902,-11.3310000000073,-5.));
#1344=CARTESIAN_POINT('',(-16.0749999999989,-9.33100000000734,-5.));
#1345=CARTESIAN_POINT('',(-19.0749999999902,-9.33100000000734,-5.));
#1346=CARTESIAN_POINT('',(-14.0749999999927,-7.33100000000734,-5.));
#1347=CARTESIAN_POINT('Origin',(-16.0749999999989,-7.33100000000734,-5.));
#1348=CARTESIAN_POINT('',(-14.0749999999989,9.93100000000112,-5.));
#1349=CARTESIAN_POINT('',(-14.0749999999902,-14.3310000000073,-5.));
#1350=CARTESIAN_POINT('',(-10.4999999999989,13.5060000000011,-5.));
#1351=CARTESIAN_POINT('Origin',(-10.4999999999989,9.93100000000112,-5.));
#1352=CARTESIAN_POINT('',(10.5000000000011,13.5060000000011,-5.));
#1353=CARTESIAN_POINT('',(-10.4999999999989,13.5060000000011,-5.));
#1354=CARTESIAN_POINT('',(14.0750000000011,9.93100000000112,-5.));
#1355=CARTESIAN_POINT('Origin',(10.5000000000011,9.93100000000112,-5.));
#1356=CARTESIAN_POINT('',(14.0750000000011,9.93100000000112,-5.));
#1357=CARTESIAN_POINT('Origin',(17.0750000000215,-11.3310000000073,-5.));
#1358=CARTESIAN_POINT('',(-18.0749999999902,-11.8310000000073,-5.));
#1359=CARTESIAN_POINT('Origin',(-16.5749999999902,-11.8310000000073,-5.));
#1360=CARTESIAN_POINT('',(15.0750000000215,-11.8310000000073,-5.));
#1361=CARTESIAN_POINT('Origin',(16.5750000000215,-11.8310000000073,-5.));
#1362=CARTESIAN_POINT('Origin',(17.0750000000215,-11.3310000000073,-5.));
#1363=CARTESIAN_POINT('Origin',(17.0750000000215,-11.3310000000073,0.));
#1364=CARTESIAN_POINT('Origin',(-17.0749999999902,-12.3310000000073,-1.));
#1365=CARTESIAN_POINT('',(-17.0749999999902,-14.3310000000073,0.));
#1366=CARTESIAN_POINT('',(-19.0749999999902,-12.3310000000073,0.));
#1367=CARTESIAN_POINT('Origin',(-17.0749999999902,-12.3310000000073,0.));
#1368=CARTESIAN_POINT('',(-19.0749999999902,-12.3310000000073,-1.));
#1369=CARTESIAN_POINT('',(-17.0749999999902,-14.3310000000073,-1.));
#1370=CARTESIAN_POINT('Origin',(-14.0749999999902,-14.3310000000073,3.));
#1371=CARTESIAN_POINT('',(14.0750000000215,-14.3310000000073,0.));
#1372=CARTESIAN_POINT('',(19.0750000000215,-14.3310000000073,0.));
#1373=CARTESIAN_POINT('',(14.0750000000215,-14.3310000000073,5.));
#1374=CARTESIAN_POINT('',(14.0750000000215,-14.3310000000073,3.));
#1375=CARTESIAN_POINT('',(-14.0749999999902,-14.3310000000073,5.));
#1376=CARTESIAN_POINT('',(-14.0749999999902,-14.3310000000073,5.));
#1377=CARTESIAN_POINT('',(-14.0749999999902,-14.3310000000073,0.));
#1378=CARTESIAN_POINT('',(-14.0749999999902,-14.3310000000073,3.));
#1379=CARTESIAN_POINT('',(-14.0749999999902,-14.3310000000073,0.));
#1380=CARTESIAN_POINT('',(-7.8749999999989,-14.3310000000073,3.));
#1381=CARTESIAN_POINT('',(-7.8749999999989,-14.3310000000073,3.));
#1382=CARTESIAN_POINT('',(7.87500000000112,-14.3310000000073,3.));
#1383=CARTESIAN_POINT('',(-14.0749999999902,-14.3310000000073,3.));
#1384=CARTESIAN_POINT('',(7.87500000000112,-14.3310000000073,3.));
#1385=CARTESIAN_POINT('Origin',(-17.0749999999902,-11.3310000000073,-5.));
#1386=CARTESIAN_POINT('',(-19.0749999999902,-11.3310000000073,0.));
#1387=CARTESIAN_POINT('',(-17.0749999999902,-9.33100000000734,0.));
#1388=CARTESIAN_POINT('Origin',(-17.0749999999902,-11.3310000000073,0.));
#1389=CARTESIAN_POINT('',(-17.0749999999902,-9.33100000000734,-5.));
#1390=CARTESIAN_POINT('',(-19.0749999999902,-11.3310000000073,-5.));
#1391=CARTESIAN_POINT('Origin',(-14.0749999999902,-9.33100000000734,-5.));
#1392=CARTESIAN_POINT('',(-16.0749999999989,-9.33100000000734,0.));
#1393=CARTESIAN_POINT('',(-19.0749999999902,-9.33100000000734,0.));
#1394=CARTESIAN_POINT('',(-16.0749999999989,-9.33100000000734,-1.));
#1395=CARTESIAN_POINT('Origin',(-16.0749999999989,-7.33100000000734,-1.));
#1396=CARTESIAN_POINT('',(-14.0749999999989,-7.33100000000734,0.));
#1397=CARTESIAN_POINT('Origin',(-16.0749999999989,-7.33100000000734,0.));
#1398=CARTESIAN_POINT('',(-14.0749999999989,-7.33100000000734,-1.));
#1399=CARTESIAN_POINT('Origin',(-14.0749999999989,9.93100000000112,3.));
#1400=CARTESIAN_POINT('',(-14.0749999999989,-0.950000000003108,0.));
#1401=CARTESIAN_POINT('',(-14.0749999999989,9.93100000000112,5.));
#1402=CARTESIAN_POINT('',(-14.0749999999989,9.93100000000112,5.));
#1403=CARTESIAN_POINT('',(-14.0749999999989,9.93100000000112,3.));
#1404=CARTESIAN_POINT('Origin',(-16.5749999999902,-11.8310000000073,-5.));
#1405=CARTESIAN_POINT('',(-18.0749999999902,-11.8310000000073,0.));
#1406=CARTESIAN_POINT('Origin',(-16.5749999999902,-11.8310000000073,0.));
#1407=CARTESIAN_POINT('',(-18.0749999999902,-11.8310000000073,-5.));
#1408=CARTESIAN_POINT('Origin',(-19.0749999999902,-9.33100000000734,-5.));
#1409=CARTESIAN_POINT('',(-19.0749999999902,-14.3310000000073,0.));
#1410=CARTESIAN_POINT('Origin',(-16.5749999999902,-11.8310000000073,0.));
#1411=CARTESIAN_POINT('Origin',(16.5750000000215,-11.8310000000073,-5.));
#1412=CARTESIAN_POINT('',(15.0750000000215,-11.8310000000073,0.));
#1413=CARTESIAN_POINT('Origin',(16.5750000000215,-11.8310000000073,0.));
#1414=CARTESIAN_POINT('',(15.0750000000215,-11.8310000000073,-5.));
#1415=CARTESIAN_POINT('Origin',(16.5750000000194,-11.8310000000073,0.));
#1416=CARTESIAN_POINT('',(14.0750000000215,-13.0810000000073,0.));
#1417=CARTESIAN_POINT('Origin',(14.0750000000215,-14.3310000000073,3.));
#1418=CARTESIAN_POINT('',(14.0750000000011,9.93100000000112,5.));
#1419=CARTESIAN_POINT('',(14.0750000000011,9.93100000000112,3.));
#1420=CARTESIAN_POINT('',(14.0750000000215,-14.3310000000073,5.));
#1421=CARTESIAN_POINT('Origin',(10.5000000000011,9.93100000000112,3.));
#1422=CARTESIAN_POINT('',(12.8750000000011,9.93100000000112,0.));
#1423=CARTESIAN_POINT('',(10.5000000000011,12.3060000000011,0.));
#1424=CARTESIAN_POINT('Origin',(10.5000000000011,9.93100000000112,0.));
#1425=CARTESIAN_POINT('',(10.5000000000011,12.3060000000011,3.));
#1426=CARTESIAN_POINT('',(12.8750000000011,9.93100000000112,3.));
#1427=CARTESIAN_POINT('Origin',(-10.4999999999989,9.93100000000112,3.));
#1428=CARTESIAN_POINT('',(-10.4999999999989,12.3060000000011,0.));
#1429=CARTESIAN_POINT('',(-12.8749999999989,9.93100000000112,0.));
#1430=CARTESIAN_POINT('Origin',(-10.4999999999989,9.93100000000112,0.));
#1431=CARTESIAN_POINT('',(-12.8749999999989,9.93100000000112,3.));
#1432=CARTESIAN_POINT('',(-10.4999999999989,12.3060000000011,3.));
#1433=CARTESIAN_POINT('Origin',(-12.8749999999989,-13.3310000000073,3.));
#1434=CARTESIAN_POINT('',(-7.8749999999989,-13.3310000000073,3.));
#1435=CARTESIAN_POINT('',(-12.8749999999989,-13.3310000000073,3.));
#1436=CARTESIAN_POINT('',(-6.4374999999938,-13.3310000000073,3.));
#1437=CARTESIAN_POINT('',(-7.8749999999989,-13.3310000000073,3.));
#1438=CARTESIAN_POINT('',(-12.8749999999989,-13.3310000000073,3.));
#1439=CARTESIAN_POINT('Origin',(-12.8749999999989,9.93100000000112,3.));
#1440=CARTESIAN_POINT('',(-12.8749999999989,9.93100000000112,3.));
#1441=CARTESIAN_POINT('',(-12.8749999999989,4.75924999999901,3.));
#1442=CARTESIAN_POINT('',(-12.8749999999989,-2.56899999999888,0.));
#1443=CARTESIAN_POINT('',(-12.8749999999989,4.75924999999901,3.));
#1444=CARTESIAN_POINT('',(-12.8749999999989,9.93100000000112,0.));
#1445=CARTESIAN_POINT('Origin',(10.5000000000011,12.3060000000011,3.));
#1446=CARTESIAN_POINT('',(-10.4999999999989,12.3060000000011,3.));
#1447=CARTESIAN_POINT('',(10.5000000000011,12.3060000000011,3.));
#1448=CARTESIAN_POINT('',(5.25000000000621,12.3060000000011,3.));
#1449=CARTESIAN_POINT('',(-10.4999999999989,12.3060000000011,0.));
#1450=CARTESIAN_POINT('',(10.5000000000011,12.3060000000011,0.));
#1451=CARTESIAN_POINT('Origin',(12.8750000000011,-13.3310000000073,3.));
#1452=CARTESIAN_POINT('',(12.8750000000011,-13.3310000000073,3.));
#1453=CARTESIAN_POINT('',(12.8750000000011,-6.87175000000522,3.));
#1454=CARTESIAN_POINT('',(12.8750000000011,-2.56899999999888,0.));
#1455=CARTESIAN_POINT('',(12.8750000000011,9.93100000000112,3.));
#1456=CARTESIAN_POINT('',(12.8750000000011,-6.87175000000522,3.));
#1457=CARTESIAN_POINT('',(12.8750000000011,9.93100000000112,0.));
#1458=CARTESIAN_POINT('',(12.8750000000011,-13.3310000000073,3.));
#1459=CARTESIAN_POINT('Origin',(7.87500000000112,-13.3310000000073,3.));
#1460=CARTESIAN_POINT('',(7.87500000000112,-13.3310000000073,3.));
#1461=CARTESIAN_POINT('',(3.93750000000621,-13.3310000000073,3.));
#1462=CARTESIAN_POINT('',(7.87500000000112,-13.3310000000073,3.));
#1463=CARTESIAN_POINT('Origin',(7.87500000000112,-14.3310000000073,3.));
#1464=CARTESIAN_POINT('',(7.87500000000112,-7.37175000000522,3.));
#1465=CARTESIAN_POINT('Origin',(-7.8749999999989,-13.3310000000073,3.));
#1466=CARTESIAN_POINT('',(-7.8749999999989,-6.87175000000522,3.));
#1467=CARTESIAN_POINT('Origin',(10.5000000000011,9.93100000000112,0.));
#1468=CARTESIAN_POINT('Origin',(10.5000000000011,9.93100000000112,3.));
#1469=CARTESIAN_POINT('Origin',(10.5000000000011,9.93100000000112,0.));
#1470=CARTESIAN_POINT('Origin',(-10.4999999999989,9.93100000000112,0.));
#1471=CARTESIAN_POINT('Origin',(-10.4999999999989,9.93100000000112,3.));
#1472=CARTESIAN_POINT('Origin',(-10.4999999999989,9.93100000000112,0.));
#1473=CARTESIAN_POINT('Origin',(1.12954090525363E-11,-0.412500000003106,
3.));
#1474=CARTESIAN_POINT('Origin',(-10.4999999999989,-2.56899999999888,3.));
#1475=CARTESIAN_POINT('Origin',(10.5000000000011,-2.56899999999888,3.));
#1476=CARTESIAN_POINT('Origin',(-10.4999999999989,9.93100000000112,3.));
#1477=CARTESIAN_POINT('',(-10.4999999999989,13.5060000000011,5.));
#1478=CARTESIAN_POINT('Origin',(-10.4999999999989,9.93100000000112,5.));
#1479=CARTESIAN_POINT('',(-10.4999999999989,13.5060000000011,3.));
#1480=CARTESIAN_POINT('Origin',(10.5000000000011,13.5060000000011,3.));
#1481=CARTESIAN_POINT('',(10.5000000000011,13.5060000000011,5.));
#1482=CARTESIAN_POINT('',(10.5000000000011,13.5060000000011,5.));
#1483=CARTESIAN_POINT('',(10.5000000000011,13.5060000000011,3.));
#1484=CARTESIAN_POINT('Origin',(10.5000000000011,9.93100000000112,3.));
#1485=CARTESIAN_POINT('Origin',(10.5000000000011,9.93100000000112,5.));
#1486=CARTESIAN_POINT('Origin',(1.12954090525363E-11,-0.412500000003106,
5.));
#1487=CARTESIAN_POINT('',(-9.39999999999889,9.93100000000112,5.));
#1488=CARTESIAN_POINT('Origin',(-10.4999999999989,9.93100000000112,5.));
#1489=CARTESIAN_POINT('',(11.6000000000011,9.93100000000112,5.));
#1490=CARTESIAN_POINT('Origin',(10.5000000000011,9.93100000000112,5.));
#1491=CARTESIAN_POINT('',(-9.39999999999889,-2.56899999999888,5.));
#1492=CARTESIAN_POINT('Origin',(-10.4999999999989,-2.56899999999888,5.));
#1493=CARTESIAN_POINT('',(11.6000000000011,-2.56899999999888,5.));
#1494=CARTESIAN_POINT('Origin',(10.5000000000011,-2.56899999999888,5.));
#1495=CARTESIAN_POINT('Origin',(-10.4999999999989,9.93100000000112,0.));
#1496=CARTESIAN_POINT('',(-9.39999999999889,9.93100000000112,0.));
#1497=CARTESIAN_POINT('',(-9.39999999999889,9.93100000000112,0.));
#1498=CARTESIAN_POINT('Origin',(-10.4999999999989,9.93100000000112,0.));
#1499=CARTESIAN_POINT('Origin',(-10.4999999999989,9.93100000000112,0.));
#1500=CARTESIAN_POINT('Origin',(10.5000000000011,-2.56899999999888,0.));
#1501=CARTESIAN_POINT('',(11.6000000000011,-2.56899999999888,0.));
#1502=CARTESIAN_POINT('',(11.6000000000011,-2.56899999999888,0.));
#1503=CARTESIAN_POINT('Origin',(10.5000000000011,-2.56899999999888,0.));
#1504=CARTESIAN_POINT('Origin',(10.5000000000011,-2.56899999999888,0.));
#1505=CARTESIAN_POINT('Origin',(10.5000000000011,-2.56899999999888,0.));
#1506=CARTESIAN_POINT('Origin',(10.5000000000011,-2.56899999999888,0.));
#1507=CARTESIAN_POINT('Origin',(10.5000000000011,9.93100000000112,0.));
#1508=CARTESIAN_POINT('',(11.6000000000011,9.93100000000112,0.));
#1509=CARTESIAN_POINT('',(11.6000000000011,9.93100000000112,0.));
#1510=CARTESIAN_POINT('Origin',(10.5000000000011,9.93100000000112,0.));
#1511=CARTESIAN_POINT('Origin',(10.5000000000011,9.93100000000112,0.));
#1512=CARTESIAN_POINT('Origin',(-10.4999999999989,-2.56899999999888,0.));
#1513=CARTESIAN_POINT('',(-9.39999999999889,-2.56899999999888,0.));
#1514=CARTESIAN_POINT('',(-9.39999999999889,-2.56899999999888,0.));
#1515=CARTESIAN_POINT('Origin',(-10.4999999999989,-2.56899999999888,0.));
#1516=CARTESIAN_POINT('Origin',(-10.4999999999989,-2.56899999999888,0.));
#1517=CARTESIAN_POINT('Origin',(-10.4999999999989,-2.56899999999888,0.));
#1518=CARTESIAN_POINT('Origin',(-10.4999999999989,-2.56899999999888,0.));
#1519=UNCERTAINTY_MEASURE_WITH_UNIT(LENGTH_MEASURE(0.01),#1523,
'DISTANCE_ACCURACY_VALUE',
'Maximum model space distance between geometric entities at asserted c
onnectivities');
#1520=UNCERTAINTY_MEASURE_WITH_UNIT(LENGTH_MEASURE(0.01),#1523,
'DISTANCE_ACCURACY_VALUE',
'Maximum model space distance between geometric entities at asserted c
onnectivities');
#1521=(
GEOMETRIC_REPRESENTATION_CONTEXT(3)
GLOBAL_UNCERTAINTY_ASSIGNED_CONTEXT((#1519))
GLOBAL_UNIT_ASSIGNED_CONTEXT((#1523,#1525,#1526))
REPRESENTATION_CONTEXT('','3D')
);
#1522=(
GEOMETRIC_REPRESENTATION_CONTEXT(3)
GLOBAL_UNCERTAINTY_ASSIGNED_CONTEXT((#1520))
GLOBAL_UNIT_ASSIGNED_CONTEXT((#1523,#1525,#1526))
REPRESENTATION_CONTEXT('','3D')
);
#1523=(
LENGTH_UNIT()
NAMED_UNIT(*)
SI_UNIT(.MILLI.,.METRE.)
);
#1524=(
LENGTH_UNIT()
NAMED_UNIT(*)
SI_UNIT(.CENTI.,.METRE.)
);
#1525=(
NAMED_UNIT(*)
PLANE_ANGLE_UNIT()
SI_UNIT($,.RADIAN.)
);
#1526=(
NAMED_UNIT(*)
SI_UNIT($,.STERADIAN.)
SOLID_ANGLE_UNIT()
);
#1527=SHAPE_DEFINITION_REPRESENTATION(#1528,#1529);
#1528=PRODUCT_DEFINITION_SHAPE('',$,#1531);
#1529=SHAPE_REPRESENTATION('',(#911),#1521);
#1530=PRODUCT_DEFINITION_CONTEXT('part definition',#1535,'design');
#1531=PRODUCT_DEFINITION('rpi_camera_case_b','rpi_camera_case_b',#1532,
#1530);
#1532=PRODUCT_DEFINITION_FORMATION('',$,#1537);
#1533=PRODUCT_RELATED_PRODUCT_CATEGORY('rpi_camera_case_b',
'rpi_camera_case_b',(#1537));
#1534=APPLICATION_PROTOCOL_DEFINITION('international standard',
'automotive_design',2009,#1535);
#1535=APPLICATION_CONTEXT(
'Core Data for Automotive Mechanical Design Process');
#1536=PRODUCT_CONTEXT('part definition',#1535,'mechanical');
#1537=PRODUCT('rpi_camera_case_b','rpi_camera_case_b',$,(#1536));
#1538=PRESENTATION_STYLE_ASSIGNMENT((#1539));
#1539=SURFACE_STYLE_USAGE(.BOTH.,#1542);
#1540=SURFACE_STYLE_RENDERING_WITH_PROPERTIES($,#1546,(#1541));
#1541=SURFACE_STYLE_TRANSPARENT(0.);
#1542=SURFACE_SIDE_STYLE('',(#1543,#1540));
#1543=SURFACE_STYLE_FILL_AREA(#1544);
#1544=FILL_AREA_STYLE('',(#1545));
#1545=FILL_AREA_STYLE_COLOUR('',#1546);
#1546=COLOUR_RGB('',0.749019607843137,0.749019607843137,0.749019607843137);
ENDSEC;
END-ISO-10303-21;
